<?xml version="1.0" encoding="UTF-8" standalone="no"?>
<!-- Created with Inkscape (http://www.inkscape.org/) -->

<svg
   xmlns:dc="http://purl.org/dc/elements/1.1/"
   xmlns:cc="http://creativecommons.org/ns#"
   xmlns:rdf="http://www.w3.org/1999/02/22-rdf-syntax-ns#"
   xmlns:svg="http://www.w3.org/2000/svg"
   xmlns="http://www.w3.org/2000/svg"
   xmlns:sodipodi="http://sodipodi.sourceforge.net/DTD/sodipodi-0.dtd"
   xmlns:inkscape="http://www.inkscape.org/namespaces/inkscape"
   width="120"
   height="120"
   viewBox="0 0 31.75 31.75"
   version="1.1"
   id="svg8"
   inkscape:version="0.92.1 unknown"
   sodipodi:docname="background-pages.svg">
  <defs
     id="defs2" />
  <sodipodi:namedview
     id="base"
     pagecolor="#ffffff"
     bordercolor="#666666"
     borderopacity="1.0"
     inkscape:pageopacity="0.0"
     inkscape:pageshadow="2"
     inkscape:zoom="3.5511539"
     inkscape:cx="46.190816"
     inkscape:cy="57.783126"
     inkscape:document-units="px"
     inkscape:current-layer="layer1"
     showgrid="false"
     units="px" />
  <metadata
     id="metadata5">
    <rdf:RDF>
      <cc:Work
         rdf:about="">
        <dc:format>image/svg+xml</dc:format>
        <dc:type
           rdf:resource="http://purl.org/dc/dcmitype/StillImage" />
        <dc:title />
      </cc:Work>
    </rdf:RDF>
  </metadata>
  <g
     inkscape:label="Camada 1"
     inkscape:groupmode="layer"
     id="layer1"
     transform="translate(0,-265.25)">
    <path
       inkscape:connector-curvature="0"
       id="path4500"
       d="m 4.6090994,295.97292 c 0.574454,-0.56487 1.244186,-1.22241 1.488291,-1.46121 0.244107,-0.2388 0.44383,-0.45811 0.44383,-0.48736 0,-0.0292 -0.09544,-0.16479 -0.212101,-0.30122 l -0.212102,-0.24805 0.226698,0.21555 c 0.124683,0.11856 0.260565,0.21555 0.301958,0.21555 0.09956,0 0.90969,-0.8167 0.90969,-0.91707 0,-0.0959 -2.49449,-2.58204 -2.592139,-2.58343 -0.03849,-5.8e-4 -1.17119,1.11206 -2.517108,2.47248 -2.28887004,2.31351 -2.44627303786,2.46199 -2.43394004,2.29596 0.01198,-0.16122 0.229579,-0.3912 2.37106404,-2.50586 1.296833,-1.2806 2.377438,-2.36132 2.401345,-2.40162 0.03251,-0.0548 -0.324974,-0.44258 -1.418631,-1.53886 -0.804153,-0.80607 -1.497727,-1.46559 -1.541273,-1.46559 -0.04355,0 -0.464664,0.38799 -0.93581304,0.8622 -0.471152,0.47421 -0.863888,0.86219 -0.87275,0.86219 -0.0089,0 -0.016119997856,-0.0659 -0.016119997856,-0.1464 0,-0.12162 0.129528997856,-0.27403 0.765071997856,-0.90024 0.42079004,-0.4146 0.78889404,-0.7979 0.81800704,-0.85176 0.04627,-0.0856 -0.04999,-0.19865 -0.76507204,-0.8984 -0.606904,-0.59389 -0.818006997856,-0.83185 -0.818006997856,-0.92207 0,-0.099 0.158483997856,0.0384 0.853193997856,0.73978 0.67278504,0.67926 0.87382204,0.85483 0.95075904,0.83035 0.05366,-0.0171 0.656491,-0.5905 1.339627,-1.27429 l 1.242063,-1.24323 -1.197026,-1.19727 c -1.043779,-1.04399 -1.209281,-1.19043 -1.292769,-1.14387 -0.05266,0.0294 -0.495066,0.47188 -0.98312004,0.98336 -0.772035,0.80907 -0.889554,0.91394 -0.904144,0.80682 -0.01323,-0.097 0.07253,-0.21291 0.404538,-0.54672 0.231719,-0.23297 0.388157,-0.42359 0.347638,-0.42359 -0.04052,0 -0.228263,0.15344 -0.417215,0.34098 -0.319781,0.3174 -0.343544997856,0.33168 -0.343544997856,0.2065 0,-0.1064 0.164108997856,-0.2962 0.785959997856,-0.909 0.43227704,-0.42598 0.78595904,-0.81017 0.78595904,-0.85376 0,-0.0436 -0.353682,-0.43245 -0.78595904,-0.86414 -0.679842,-0.67892 -0.785959997856,-0.80634 -0.785959997856,-0.94375 0,-0.15017 0.046299997856,-0.11204 0.846142997856,0.69675 0.56593104,0.57226 0.88177404,0.85561 0.95373404,0.85561 0.07349,0 0.539263,-0.43543 1.469225,-1.37351 l 1.36163,-1.37351 -1.389614,-1.39059 c -0.76429,-0.76483 -1.415086,-1.39059 -1.446213,-1.39059 -0.03112,0 -0.442012,0.40329 -0.91307504,0.89621 -0.816943,0.85485 -0.85718,0.88919 -0.871719,0.74409 -0.01369,-0.1365 0.06834,-0.2347 0.798638,-0.95623 0.44763204,-0.44226 0.81387904,-0.82998 0.81387904,-0.86159 0,-0.0316 -0.365091,-0.41818 -0.81131604,-0.85904 -0.637268,-0.62962 -0.811311997856,-0.83006 -0.811311997856,-0.93436 0,-0.11458 0.119927997856,-0.013 0.875224997856,0.74156 0.48137404,0.48088 0.89797904,0.87433 0.92578504,0.87433 0.06442,0 2.559801,-2.49487 2.559801,-2.55927 0,-0.0674 -2.495067,-2.56319 -2.56248,-2.56319 -0.03034,0 -0.447383,0.39636 -0.92675204,0.88081 -0.819813,0.82849 -0.871578997856,0.87145 -0.871578997856,0.72328 0,-0.13586 0.112635997856,-0.27034 0.819041997856,-0.97787 l 0.81904204,-0.82034 -0.154809,-0.19457 c -0.08514,-0.10701 -0.453712,-0.4877 -0.81904104,-0.84598 -0.365329,-0.35828 -0.664233997856,-0.68351 -0.664233997856,-0.72273 0,-0.0392 0.00649999786,-0.0713 0.014379997856,-0.0713 0.0079,0 0.390879,0.37657 0.851047,0.83683 0.46016604,0.46027 0.86717004,0.83684 0.90445304,0.83684 0.07983,0 2.388101,-2.27591 2.388101,-2.35462 0,-0.0295 -0.518927,-0.57305 -1.153172,-1.20788 -0.977727,-0.97862 -1.133198,-1.15422 -1.021879,-1.15422 0.103609,0 0.359571,0.22991 1.213967,1.09042 0.595471,0.59974 1.106857,1.09043 1.136414,1.09043 0.02955,0 0.54393,-0.49069 1.143055,-1.09043 0.689278,-0.68998 1.126722,-1.09073 1.191174,-1.09127 0.07124,-5.9e-4 -0.237271,0.34386 -1.026375,1.14593 -0.620529,0.63073 -1.128233,1.17738 -1.128233,1.21479 0,0.0984 2.487777,2.61766 2.567416,2.59994 0.03675,-0.008 0.312692,-0.25478 0.613192,-0.54801 1.8032221,-1.75961 1.9304519,-1.83188 0.305504,-0.17352 -0.43925,0.44828 -0.798637,0.83385 -0.798637,0.85681 0,0.023 0.302341,0.36359 0.671869,0.75694 l 0.671869,0.71518 -0.700642,-0.65898 c -0.385352,-0.36243 -0.723542,-0.66712 -0.75153,-0.67708 -0.04835,-0.0172 -2.33004,2.28285 -2.369783,2.38885 -0.02009,0.0536 2.538599,2.64522 2.699825,2.7346 0.07978,0.0442 0.142166,0.006 0.392981,-0.2425 0.163976,-0.1623 0.298138,-0.32434 0.298138,-0.36008 0,-0.0357 0.02852,-0.065 0.06336,-0.065 0.03484,0 0.58819,-0.52046 1.229648,-1.15657 0.6414576,-0.63611 1.6283546,-1.61212 2.1931056,-2.1689 0.564751,-0.55677 1.026818,-1.03797 1.026818,-1.06932 0,-0.0903 -2.732004,-2.77992 -2.8420449,-2.79795 -0.054431,-0.009 -0.098965,-0.0484 -0.098965,-0.0878 0,-0.0394 -0.5274597,-0.59125 -1.1721297,-1.22637 -1.059456,-1.04377 -1.159236,-1.15633 -1.037984,-1.17097 0.115881,-0.014 0.283125,0.13623 1.228145,1.10311 0.6017,0.61561 1.1223486,1.1193 1.1570006,1.1193 0.034652,0 0.083605,0.0429 0.1087837,0.0952 0.025179,0.0524 0.6390513,0.70275 1.3641643,1.44526 0.858861,0.87946 1.353915,1.35007 1.420327,1.3502 0.0647,10e-5 0.432787,-0.3311 1.007442,-0.90654 0.725807,-0.7268 0.896261,-0.92325 0.858949,-0.98993 -0.0256,-0.0458 -0.751313,-0.79029 -1.61269,-1.6545 -1.268269,-1.27245 -1.542584,-1.5713 -1.442288,-1.5713 0.09482,0 0.474509,0.35154 1.61939,1.49933 0.822546,0.82464 1.536319,1.52199 1.586163,1.54968 0.07645,0.0425 0.28535,-0.13845 1.335903,-1.15699 0.684902,-0.66404 1.267926,-1.24954 1.29561,-1.30111 0.04161,-0.0775 0.0056,-0.13686 -0.207502,-0.34234 -0.251344,-0.24232 -0.254328,-0.24857 -0.118558,-0.24857 0.0984,0 0.180842,0.0521 0.280882,0.17751 0.178818,0.22416 0.298574,0.22416 0.477394,0 0.07788,-0.0976 0.181537,-0.17751 0.230343,-0.17751 0.127218,-1e-5 0.113116,0.029 -0.114091,0.23426 -0.111555,0.1008 -0.202828,0.22122 -0.202828,0.2676 0,0.10461 0.608415,0.71536 0.712624,0.71536 0.08823,0 0.757883,-0.65875 0.757883,-0.74555 0,-0.0321 -0.09698,-0.15107 -0.215506,-0.26444 -0.173037,-0.16552 -0.195941,-0.20625 -0.116229,-0.20669 0.0546,-3e-4 0.185806,0.084 0.291565,0.18726 l 0.192291,0.1878 0.192289,-0.1878 c 0.145979,-0.14257 0.234099,-0.1878 0.365894,-0.1878 h 0.173603 l -0.264481,0.26786 c -0.145463,0.14732 -0.264479,0.28814 -0.264479,0.31292 0,0.0248 0.31375,0.36347 0.697222,0.75264 0.383472,0.38917 0.651587,0.6835 0.595808,0.65407 -0.05578,-0.0294 -0.374875,-0.3289 -0.709107,-0.66548 -0.33423,-0.33658 -0.642888,-0.61197 -0.685905,-0.61197 -0.103441,0 -0.760039,0.66415 -0.760039,0.76879 0,0.0825 1.774342,1.8178 1.858654,1.8178 0.08041,0 0.727407,-0.68418 0.727407,-0.76921 0,-0.0451 0.05513,-0.0958 0.122512,-0.11274 0.144001,-0.0361 1.822427,-1.76786 1.845044,-1.90362 0.0096,-0.0578 -0.07327,-0.17004 -0.222645,-0.30155 l -0.237976,-0.20951 h 0.175127 c 0.128395,0 0.214018,0.0406 0.320868,0.15215 0.181526,0.18951 0.224133,0.18951 0.405657,0 0.104453,-0.10905 0.193286,-0.15215 0.313561,-0.15215 h 0.167818 l -0.263603,0.25413 -0.263602,0.25413 0.249188,0.25304 c 0.137052,0.13918 0.273291,0.25305 0.302752,0.25305 0.02946,0 0.28089,-0.22823 0.558733,-0.50718 0.416016,-0.41767 0.532042,-0.50717 0.657449,-0.50717 0.143982,0 0.119231,0.0331 -0.454284,0.60827 l -0.606563,0.60827 0.328467,0.34163 c 1.162814,1.20943 1.711903,1.74634 1.811649,1.77145 0.06275,0.0158 0.11409,0.0653 0.11409,0.11006 0,0.11973 0.409419,0.51628 0.533031,0.51628 0.07137,0 0.471652,-0.37076 1.219088,-1.12918 0.612057,-0.62104 1.166616,-1.18998 1.232351,-1.2643 l 0.11953,-0.13513 -0.240548,-0.25722 c -0.132301,-0.14147 -0.275179,-0.25722 -0.317504,-0.25722 -0.04232,0 -0.541638,0.4615 -1.109582,1.02555 -0.567944,0.56406 -1.072124,1.04748 -1.120398,1.07427 -0.04827,0.0268 0.397113,-0.45055 0.989751,-1.06078 0.592639,-0.61022 1.077526,-1.14442 1.077526,-1.18711 0,-0.0427 -0.153411,-0.23224 -0.340912,-0.42123 l -0.340913,-0.34361 h 0.167172 c 0.137933,0 0.211754,0.0488 0.422062,0.27894 0.140189,0.15342 0.284537,0.27895 0.320774,0.27895 0.03624,0 0.180583,-0.12553 0.320772,-0.27895 0.167357,-0.18315 0.294884,-0.27894 0.371355,-0.27894 0.09918,0 0.06491,0.052 -0.230985,0.3502 l -0.34745,0.35021 0.241658,0.2584 c 0.132911,0.14212 0.267311,0.25841 0.298663,0.25841 0.03135,0 0.338895,-0.27388 0.683424,-0.60861 0.528942,-0.51391 0.65105,-0.60861 0.784719,-0.60861 0.151194,0 0.127023,0.0313 -0.53824,0.69802 -0.383098,0.38391 -0.696544,0.72207 -0.696544,0.75146 0,0.0294 0.365092,0.41415 0.811315,0.85501 0.716692,0.70809 0.811313,0.82077 0.811313,0.96619 0,0.15789 -0.03557,0.12866 -0.871579,-0.7162 -0.479367,-0.48444 -0.907384,-0.88081 -0.951145,-0.88081 -0.101778,0 -2.538086,2.43506 -2.538086,2.53679 0,0.0419 0.407948,0.48378 0.906551,0.98191 0.662601,0.66197 0.925267,0.89377 0.976111,0.86142 0.03826,-0.0243 0.605789,-0.59189 1.261178,-1.26123 1.013096,-1.03466 1.194085,-1.19921 1.208095,-1.09837 0.01346,0.0968 -0.203543,0.33333 -1.17894,1.2852 -0.65748,0.64162 -1.195419,1.19391 -1.195419,1.22731 0,0.0732 0.463746,0.53872 0.536689,0.53872 0.02832,0 0.4557,-0.39369 0.949731,-0.87487 0.66081,-0.64362 0.898054,-0.84695 0.897529,-0.76922 -3.84e-4,0.0673 -0.299779,0.41424 -0.824705,0.95587 -0.453194,0.46761 -0.83085,0.86857 -0.839232,0.89102 -0.0084,0.0224 0.36224,0.42535 0.823609,0.89532 0.704217,0.71736 0.925658,0.9813 0.823294,0.9813 -0.009,0 -0.379771,-0.3669 -0.82399,-0.81534 -0.444219,-0.44844 -0.850693,-0.83889 -0.903278,-0.86766 -0.08307,-0.0455 -0.274141,0.12616 -1.457828,1.30949 -0.749222,0.74899 -1.362223,1.39633 -1.362223,1.43853 0,0.0792 3.135337,3.24597 3.213717,3.24597 0.02416,0 0.240799,-0.18829 0.48142,-0.41842 l 0.437491,-0.41842 -0.423023,0.44239 c -0.232662,0.24331 -0.415207,0.46503 -0.405658,0.49272 0.0095,0.0277 0.296889,0.33253 0.638528,0.67744 0.508152,0.51302 0.621163,0.65394 0.621163,0.77454 0,0.13615 -0.05338,0.0941 -0.697877,-0.54926 -0.383836,-0.38318 -0.720671,-0.69669 -0.748526,-0.69669 -0.08298,0 -1.646729,1.59203 -1.646729,1.67651 0,0.0938 2.487944,2.58121 2.590294,2.58977 0.0395,0.003 0.08894,0.003 0.109858,0 0.02092,-0.003 0.03803,0.0352 0.03803,0.0855 0,0.0503 0.07986,0.16891 0.177475,0.26354 0.107519,0.10423 0.177474,0.22092 0.177474,0.29603 0,0.11332 -0.01781,0.10375 -0.207138,-0.11138 -0.113926,-0.12946 -0.245742,-0.23537 -0.292926,-0.23537 -0.1186,0 -0.781861,0.6777 -0.759889,0.77644 0.0097,0.0436 0.297151,0.36479 0.63879,0.71381 0.34164,0.34903 0.621163,0.66115 0.621163,0.69361 0,0.0325 -0.297698,-0.23452 -0.661551,-0.59329 -0.363855,-0.35876 -0.700423,-0.65877 -0.74793,-0.66667 -0.09672,-0.0161 -3.575328,3.49777 -3.599202,3.63568 -0.0189,0.10914 2.634955,2.76011 2.739148,2.73617 0.108014,-0.0248 1.602468,-1.45996 1.638483,-1.57346 0.01618,-0.051 0.05998,-0.0926 0.09735,-0.0926 0.03737,0 0.172741,-0.11658 0.300826,-0.25907 l 0.23288,-0.25908 v 0.17429 c 0,0.15913 -0.08819,0.26203 -1.014142,1.18323 -0.557777,0.55491 -1.014141,1.04526 -1.014141,1.08966 0,0.0444 0.456364,0.53146 1.014141,1.08236 0.873621,0.86284 1.014142,1.02286 1.014142,1.15486 0,0.14177 -0.08171,0.0724 -1.093351,-0.92877 -0.601344,-0.59509 -1.117188,-1.09041 -1.146323,-1.1007 -0.07527,-0.0266 -0.802751,0.70871 -0.802751,0.81137 0,0.0774 2.420933,2.47972 2.541581,2.52206 0.02833,0.01 0.152616,-0.0875 0.276181,-0.21644 l 0.224663,-0.23452 v 0.14351 c 0,0.10064 -0.04544,0.1771 -0.152121,0.25599 -0.192732,0.14252 -0.192732,0.26913 0,0.43134 0.110761,0.0932 0.152121,0.17222 0.152121,0.29059 v 0.16257 l -0.207138,-0.23537 c -0.113926,-0.12945 -0.246484,-0.23537 -0.294572,-0.23537 -0.08737,0 -1.577282,1.52182 -1.577282,1.61106 0,0.0259 0.136911,0.1778 0.304243,0.33744 0.167334,0.15964 0.304242,0.30005 0.304242,0.31202 0,0.012 -0.04785,0.0218 -0.106343,0.0218 -0.06342,0 -0.198364,-0.10237 -0.334295,-0.25359 -0.125374,-0.13947 -0.266626,-0.25358 -0.313896,-0.25358 -0.04727,0 -0.198318,0.11411 -0.335667,0.25358 -0.189909,0.19285 -0.286291,0.25359 -0.40239,0.25359 -0.15123,0 -0.149455,-0.003 0.188245,-0.34362 0.187502,-0.18899 0.340913,-0.36541 0.340913,-0.39205 0,-0.10022 -0.885772,-0.93801 -0.991735,-0.93801 -0.06448,0 -0.213062,0.11502 -0.376735,0.29163 -0.811066,0.87518 -1.338198,1.38623 -1.415297,1.37209 -0.05616,-0.0103 0.198698,-0.28252 0.768572,-0.82096 0.468926,-0.44305 0.876456,-0.85015 0.905621,-0.90466 0.04633,-0.0866 -0.0353,-0.18826 -0.646008,-0.80472 -0.41275,-0.41664 -0.738695,-0.70562 -0.795877,-0.70562 -0.05884,0 -0.631815,0.53111 -1.460167,1.35348 -0.74983,0.74442 -1.363313,1.36634 -1.363298,1.38205 1.5e-5,0.0157 0.105405,0.13698 0.234199,0.26948 l 0.234171,0.24091 h -0.148605 c -0.106317,0 -0.180606,-0.0433 -0.26107,-0.15215 -0.06186,-0.0837 -0.15674,-0.15215 -0.210846,-0.15215 -0.05411,0 -0.14899,0.0685 -0.210847,0.15215 -0.08719,0.11796 -0.151812,0.15215 -0.287546,0.15215 h -0.175078 l 0.235321,-0.20718 c 0.129427,-0.11395 0.23532,-0.23361 0.23532,-0.26592 0,-0.0721 -2.691702,-2.77282 -2.763573,-2.77282 -0.08688,0 -2.509963,2.4551 -2.509963,2.54312 0,0.0454 0.149153,0.22211 0.331451,0.39268 l 0.331451,0.31012 h -0.179169 c -0.149026,0 -0.221002,-0.0434 -0.42785,-0.25806 -0.28566,-0.29642 -0.329621,-0.2926 -0.62673,0.0546 -0.151378,0.17689 -0.201663,0.20348 -0.384776,0.20348 -0.115853,0 -0.210641,-0.0242 -0.210641,-0.0537 0,-0.0295 0.02299,-0.0395 0.05109,-0.0221 0.06703,0.0414 0.658812,-0.52413 0.658812,-0.62963 0,-0.1038 -2.433792,-2.54045 -2.537467,-2.54045 -0.09763,0 -0.606373,0.51062 -0.606373,0.60861 0,0.0401 0.119796,0.19729 0.266212,0.34934 l 0.266212,0.27644 -0.312777,-0.26617 c -0.255251,-0.21723 -0.329858,-0.25685 -0.405656,-0.21543 -0.05108,0.0279 -0.638516,0.60029 -1.305404,1.27194 -1.09173,1.09953 -1.229088,1.22119 -1.378776,1.22119 -0.09144,0 -0.18275,-0.0267 -0.202915,-0.0593 -0.0254,-0.0411 -0.0078,-0.0483 0.05724,-0.0233 0.07527,0.0289 0.353691,-0.2238 1.402764,-1.27308 0.719871,-0.72003 1.308858,-1.33495 1.308858,-1.3665 0,-0.0728 -3.177713,-3.18068 -3.274696,-3.20278 -0.03959,-0.009 -0.07215,-0.0433 -0.07236,-0.0761 -1.92e-4,-0.0328 -0.736633,-0.79572 -1.6364866,-1.69532 -1.119071,-1.11875 -1.670095,-1.63564 -1.743671,-1.63564 -0.07392,0 -0.48595,0.39024 -1.317201,1.24754 -0.665297,0.68614 -1.21781,1.26984 -1.227806,1.2971 -0.01948,0.0531 2.393888,2.52231 2.538473,2.5972 0.06709,0.0347 0.174582,-0.0326 0.481717,-0.30155 l 0.395358,-0.34628 -0.342272,0.35354 c -0.189086,0.19531 -0.342273,0.39863 -0.342273,0.4543 0,0.0627 0.307692,0.40699 0.814749,0.91164 0.448114,0.44598 0.8625452,0.87935 0.9209597,0.96304 0.058415,0.0837 -0.1884277,-0.13532 -0.5485377,-0.48666 -0.801292,-0.78179 -1.283446,-1.23248 -1.341345,-1.25381 -0.06333,-0.0233 -0.90776,0.86413 -0.908085,0.95434 -1.51e-4,0.0418 0.655228,0.71512 1.456397,1.49617 1.15739,1.12833 1.4346316,1.42325 1.3494034,1.43548 -0.080296,0.0115 -0.2586804,-0.14151 -0.7094404,-0.60861 -1.396405,-1.44702 -2.17471,-2.2216 -2.23228,-2.2216 -0.03377,0 -0.685016,0.63884 -1.447214,1.41965 -1.110177,1.13728 -1.412053,1.41974 -1.517699,1.42009 -0.111787,3.8e-4 0.02725,-0.15603 0.912586,-1.02659 z M 25.21927,294.91681 c 1.099758,-1.11789 1.342039,-1.38891 1.303519,-1.45813 -0.02602,-0.0468 -0.651389,-0.68764 -1.389703,-1.42415 l -1.342387,-1.33913 -0.283792,0.30659 c -0.156086,0.16863 -0.774217,0.79258 -1.373626,1.38656 -0.599409,0.59397 -1.089832,1.11551 -1.089832,1.15897 0,0.10501 2.63815,2.74238 2.743198,2.74238 0.04499,0 0.689666,-0.61789 1.432623,-1.37309 z m 5.322545,0.20692 c 0.245931,-0.23728 0.471076,-0.47485 0.500322,-0.52793 0.04584,-0.0832 -0.01978,-0.17057 -0.476163,-0.63397 -0.291136,-0.2956 -0.846091,-0.86269 -1.233237,-1.26019 -0.387146,-0.3975 -0.739458,-0.72272 -0.782915,-0.72272 -0.04346,0 -0.431558,0.35317 -0.862448,0.78482 l -0.783438,0.78482 0.505162,0.51842 c 0.277839,0.28513 0.601538,0.61665 0.719331,0.7367 0.117795,0.12006 0.249,0.21829 0.291567,0.21829 0.04257,0 0.07739,0.0414 0.07739,0.0921 0,0.0507 0.217774,0.3057 0.483946,0.56678 l 0.483946,0.47468 0.314689,-0.30018 c 0.17308,-0.1651 0.515909,-0.49433 0.761843,-0.73161 z m -11.184757,-0.26621 c 0.769675,-0.76935 1.230027,-1.26671 1.230027,-1.32891 0,-0.11894 -2.366093,-2.51333 -2.483627,-2.51333 -0.04281,0 -0.647955,0.57058 -1.34476,1.26794 l -1.266916,1.26794 1.266916,1.26794 c 0.696805,0.69736 1.289735,1.26794 1.317624,1.26794 0.02789,0 0.604219,-0.55329 1.280736,-1.22952 z m -4.519914,-0.96085 c 0.168477,-0.15937 0.272238,-0.29802 0.263178,-0.35167 -0.01948,-0.11537 -3.118169,-3.23976 -3.213106,-3.23976 -0.03985,0 -0.07246,-0.0383 -0.07246,-0.0852 0,-0.0469 -0.554823,-0.64596 -1.23294,-1.33134 -0.6781167,-0.68538 -1.3911856,-1.41378 -1.5845956,-1.61867 -0.503792,-0.53367 -0.485434,-0.52975 -0.839477,-0.17933 -0.163977,0.1623 -0.298139,0.31938 -0.298139,0.34908 0,0.0297 0.777629,0.82921 1.728065,1.7767 0.9504356,0.94749 1.7433676,1.74944 1.7620706,1.7821 0.06627,0.11574 3.109682,3.16117 3.159078,3.16117 0.0276,0 0.175353,-0.11839 0.328325,-0.2631 z m 1.76224,-1.80912 c 0.750817,-0.75142 1.252542,-1.29147 1.241944,-1.33681 -0.02889,-0.12358 -3.045018,-3.18424 -3.137918,-3.18424 -0.04674,0 -0.613135,0.51566 -1.258641,1.14591 -0.645505,0.63026 -1.173647,1.13001 -1.173647,1.11058 0,-0.0194 0.513408,-0.5606 1.140908,-1.20258 0.627501,-0.64198 1.140911,-1.19387 1.140911,-1.22642 0,-0.0326 -0.127309,-0.18394 -0.282909,-0.3364 -0.155599,-0.15247 -0.42252,-0.43698 -0.593158,-0.63224 -0.235525,-0.26951 -0.163201,-0.21149 0.300284,0.24091 0.335794,0.32776 0.642865,0.59593 0.682383,0.59593 0.09624,0 2.023097,-1.93281 2.023097,-2.02935 0,-0.11594 -5.44634,-5.54125 -5.541413,-5.52002 -0.134695,0.0301 -2.5717206,2.4275 -2.5717206,2.52993 0,0.0539 0.46851,0.57062 1.102879,1.21628 1.2828906,1.30573 1.1687826,1.18479 1.0946016,1.16011 -0.03244,-0.0108 -0.564766,-0.51602 -1.182946,-1.12272 -0.6181806,-0.60671 -1.1524116,-1.10311 -1.1871786,-1.10311 -0.03476,0 -0.118533,0.0591 -0.186145,0.13145 -0.06761,0.0723 -0.168564,0.15497 -0.224342,0.18372 -0.0562,0.029 -0.01662,-0.0363 0.08873,-0.14627 0.104584,-0.10919 0.190151,-0.23124 0.190151,-0.2712 0,-0.0932 -0.659281,-0.7599 -0.751483,-0.7599 -0.08287,0 -2.714197,2.66475 -2.739242,2.77403 -0.02078,0.0906 2.870631,3.00777 2.981248,3.00777 0.09885,0 0.610891,-0.50707 0.610891,-0.60496 0,-0.0417 -0.09698,-0.17649 -0.215504,-0.29945 -0.118528,-0.12296 -0.169869,-0.19996 -0.114091,-0.17112 0.05578,0.0289 0.168432,0.12288 0.250345,0.20896 0.08191,0.0861 0.1903,0.15652 0.240858,0.15652 0.05594,0 0.09193,0.0371 0.09193,0.0947 0,0.11618 3.2479206,3.30338 3.3663156,3.30338 0.04661,0 0.08176,0.0416 0.08176,0.0966 0,0.0599 0.61182,0.6957 1.609952,1.67303 0.885471,0.86701 1.621529,1.57668 1.635682,1.57703 0.01416,3.9e-4 0.592611,-0.56668 1.285458,-1.26009 z m 5.265165,0.26074 c 0.552393,-0.55 1.004355,-1.02928 1.004355,-1.06507 0,-0.0358 0.02918,-0.0651 0.06485,-0.0651 0.03567,0 0.211843,-0.14835 0.391504,-0.32966 l 0.326656,-0.32965 -1.213009,-1.21412 c -0.667157,-0.66776 -1.263735,-1.24127 -1.325731,-1.27445 -0.102699,-0.055 -0.137702,-0.0338 -0.393618,0.23779 -0.154492,0.16397 -0.281726,0.32167 -0.282744,0.35044 -9.58e-4,0.0288 0.136845,0.18853 0.306357,0.35502 0.169513,0.1665 0.585945,0.59942 0.925405,0.96205 l 0.617199,0.65932 -0.557778,-0.51609 c -0.306778,-0.28386 -0.739788,-0.70037 -0.962246,-0.9256 -0.222456,-0.22522 -0.428034,-0.40949 -0.456839,-0.40949 -0.0288,0 -0.50833,0.45647 -1.06561,1.01439 l -1.013238,1.0144 1.266868,1.26789 c 0.696778,0.69734 1.288559,1.26789 1.315068,1.26789 0.02651,0 0.500155,-0.45 1.052552,-1 z m 5.656742,0.27728 c 0.401748,-0.3975 0.752954,-0.7639 0.780461,-0.81422 0.0419,-0.0767 -0.06763,-0.21637 -0.675811,-0.86194 l -0.725824,-0.77045 0.77047,0.72656 c 0.551069,0.51967 0.790441,0.71457 0.840599,0.68443 0.111647,-0.0671 0.746811,-0.75937 0.746811,-0.81398 0,-0.0902 -2.644512,-2.75302 -2.7341,-2.75302 -0.06872,0 -0.543522,0.45736 -0.921394,0.88756 -0.0245,0.0279 -0.39288,0.39984 -0.818619,0.82655 -0.42574,0.42671 -0.782588,0.80032 -0.792998,0.83024 -0.02039,0.0586 2.67445,2.78099 2.752828,2.78099 0.02592,0 0.375831,-0.32523 0.777577,-0.72272 z m -8.436271,-3.02416 c 0.787382,-0.78829 0.997222,-1.02559 0.962213,-1.08816 -0.02462,-0.044 -0.745755,-0.76671 -1.602516,-1.606 -1.305115,-1.27851 -1.572256,-1.51801 -1.647235,-1.47682 -0.04922,0.0271 -0.523037,0.4862 -1.052924,1.02034 l -0.963436,0.97117 1.607494,1.5938 c 0.884123,0.87659 1.625928,1.59381 1.648457,1.59381 0.02253,0 0.494105,-0.45367 1.047947,-1.00814 z m 6.002591,-0.47767 c 0.676157,-0.67772 1.229374,-1.26524 1.229374,-1.3056 0,-0.0998 -2.438101,-2.53393 -2.538053,-2.53393 -0.09601,0 -2.610492,2.52324 -2.566428,2.57537 0.251051,0.29698 2.513895,2.49462 2.5694,2.49536 0.04198,5.7e-4 0.629551,-0.55348 1.305707,-1.2312 z M 6.3066464,288.80323 c 0.686793,-0.67269 1.248717,-1.24416 1.248717,-1.26994 0,-0.0548 -2.916014,-2.97538 -2.998712,-3.00341 -0.06063,-0.0206 -2.579069,2.47184 -2.579069,2.5524 0,0.0969 2.914522,2.97283 2.998002,2.95832 0.04529,-0.008 0.644267,-0.56469 1.331062,-1.23737 z m 14.2747946,-0.68595 0.323954,-0.30789 -1.59133,-1.59225 c -0.875229,-0.87574 -1.62569,-1.58968 -1.66769,-1.58653 -0.042,0.003 -0.198801,0.13906 -0.348448,0.30203 l -0.272084,0.2963 1.558899,1.59988 c 0.857394,0.87993 1.584514,1.59908 1.615824,1.59811 0.03131,-9.6e-4 0.202701,-0.14032 0.380875,-0.30965 z m 1.732417,-1.70069 c 0.752751,-0.74465 1.264944,-1.2896 1.264944,-1.34585 0,-0.0835 -2.889003,-3.08499 -3.082746,-3.20273 -0.05289,-0.0322 -0.417178,0.30147 -1.396845,1.27927 l -1.32529,1.32276 1.595657,1.59894 c 0.87761,0.87942 1.614483,1.59895 1.637496,1.59895 0.02301,0 0.611065,-0.5631 1.306784,-1.25134 z m 6.154265,-0.61185 c 1.497426,-1.47836 1.750684,-1.74932 1.708566,-1.82804 -0.02719,-0.0508 -0.62309,-0.64872 -1.324209,-1.32866 l -1.274762,-1.23624 -1.796629,1.79646 c -1.215688,1.21558 -1.796629,1.83074 -1.796629,1.90246 0,0.0583 0.07416,0.17038 0.164798,0.24907 0.09064,0.0787 0.659489,0.63262 1.26411,1.23097 1.016561,1.00602 1.106744,1.08271 1.198028,1.01876 0.05429,-0.038 0.88982,-0.85019 1.856727,-1.80478 z M 17.204581,284.7777 c 0.131264,-0.13911 0.238664,-0.2903 0.238664,-0.33597 0,-0.0888 -5.40908,-5.54793 -5.49701,-5.54793 -0.07886,0 -0.587841,0.51879 -0.587841,0.59917 0,0.0994 5.426602,5.53765 5.525755,5.53765 0.04497,0 0.189166,-0.11382 0.320432,-0.25292 z m 8.453195,-1.69969 1.79955,-1.80045 -1.596688,-1.59762 c -0.878177,-0.87869 -1.619522,-1.59762 -1.647434,-1.59762 -0.06367,0 -3.676827,3.6088 -3.676827,3.67239 0,0.0957 3.118769,3.11856 3.220168,3.12115 0.06785,0.002 0.700452,-0.59646 1.901231,-1.79785 z m -6.705622,-0.0891 c 0.703989,-0.70454 1.27998,-1.32075 1.27998,-1.36937 0,-0.0507 0.03822,-0.0884 0.08968,-0.0884 0.138871,0 3.734995,-3.62416 3.680894,-3.70959 -0.02398,-0.0379 -0.328833,-0.34469 -0.677444,-0.68183 -0.348611,-0.33713 -0.907659,-0.87898 -1.242325,-1.20411 -0.334667,-0.32514 -0.638942,-0.59134 -0.676166,-0.59158 -0.03723,-2.5e-4 -0.721963,0.64432 -1.521637,1.43235 -0.799675,0.78802 -1.544204,1.51265 -1.65451,1.61028 -0.209058,0.18504 2.099396,-2.21453 2.682141,-2.788 0.183427,-0.18051 0.333505,-0.36325 0.333505,-0.40609 0,-0.097 -2.706731,-2.81017 -2.777547,-2.78415 -0.101787,0.0374 -6.349729,6.28052 -6.349729,6.34482 0,0.0757 5.427618,5.51665 5.503189,5.51665 0.02749,0 0.625975,-0.57645 1.329965,-1.28099 z M 5.9408934,282.76276 c 0.748514,-0.74522 1.360934,-1.3909 1.360934,-1.43484 0,-0.10075 -2.466343,-2.53555 -2.568404,-2.53555 -0.06811,0 -2.705134,2.65949 -2.705134,2.72818 0,0.11103 0.119638,0.0137 0.800448,-0.65131 1.498186,-1.46336 1.59231,-1.48726 0.176415,-0.0448 -0.453608,0.46211 -0.824742,0.87237 -0.824742,0.91168 0,0.0764 2.279021,2.38157 2.35459,2.38157 0.02473,0 0.657382,-0.60972 1.405893,-1.35494 z m 24.8820026,0.73021 c 0.238994,-0.24278 0.311257,-0.34749 0.27889,-0.40414 -0.02402,-0.042 -0.596832,-0.63796 -1.272896,-1.32426 -0.769287,-0.78093 -1.266112,-1.24781 -1.327844,-1.24781 -0.08276,0 -0.710481,0.62737 -0.750646,0.75022 -0.0065,0.0197 0.565078,0.62687 1.270078,1.34916 1.460702,1.49654 1.279265,1.40827 1.802418,0.87683 z M 1.6912214,281.99621 c 0.05167,-0.0573 0.08553,-0.12943 0.07525,-0.16027 -0.02344,-0.0703 -0.85374304,0.7119 -0.85374304,0.80433 0,0.0622 0.55802104,-0.39949 0.77848704,-0.64406 z m 8.0551308,-1.13647 c 0.6890988,-0.70469 1.2538478,-1.30213 1.2549998,-1.32766 0.0025,-0.0561 -0.599131,-0.69784 -0.707491,-0.75458 -0.05742,-0.0301 -0.3897885,0.27375 -1.3160856,1.20307 -0.681595,0.68382 -1.259237,1.279 -1.283647,1.32262 -0.03367,0.0602 0.04421,0.17072 0.322652,0.45793 0.20187,0.20823 0.391702,0.37889 0.421849,0.37923 0.03014,3.9e-4 0.618623,-0.57593 1.3077228,-1.28061 z m -0.9446008,-0.93861 c 0.7089302,-0.69023 1.2889636,-1.28106 1.2889636,-1.31296 0,-0.07 -1.6590166,-1.69235 -1.7305736,-1.69235 -0.02764,0 -0.180081,0.11982 -0.338773,0.26627 l -0.288531,0.26626 0.266212,-0.28859 c 0.146418,-0.15872 0.266212,-0.30764 0.266212,-0.33093 0,-0.0233 -0.170533,-0.21177 -0.378965,-0.41885 l -0.378964,-0.37652 -0.69856,0.68048 c -1.469111,1.43109 -1.839471,1.80627 -1.839471,1.8634 0,0.0996 2.404946,2.59875 2.500774,2.59875 0.0235,0 0.622744,-0.56473 1.331676,-1.25496 z m 19.3280136,0.72535 c 0.118527,-0.11085 0.215505,-0.24707 0.215505,-0.30269 0,-0.0556 -0.07416,-0.18211 -0.164799,-0.28107 l -0.164797,-0.17993 0.179888,0.16484 c 0.09894,0.0907 0.224179,0.16483 0.278312,0.16483 0.101457,0 1.696851,-1.55022 1.696851,-1.6488 0,-0.067 -3.156058,-3.22008 -3.22316,-3.22008 -0.06369,0 -2.557448,2.50279 -2.557448,2.56671 0,0.0261 0.71847,0.76468 1.596603,1.64137 l 1.596606,1.59397 0.165466,-0.1488 c 0.09101,-0.0818 0.262444,-0.2395 0.380973,-0.35035 z m -16.633522,-1.56075 c 0.147294,-0.1455 0.267806,-0.30016 0.267806,-0.34371 0,-0.0975 -0.679362,-0.78036 -0.750613,-0.75446 -0.09477,0.0344 -0.618461,0.55622 -0.61976,0.61749 -0.0015,0.0681 0.709373,0.74077 0.785649,0.74347 0.02701,9.6e-4 0.169624,-0.1173 0.316918,-0.26279 z m 2.618278,-2.6644 c 1.185595,-1.1925 2.602118,-2.6125 3.147832,-3.15556 0.545713,-0.54306 0.992205,-1.02519 0.992205,-1.0714 0,-0.0977 -0.420265,-0.55317 -0.510432,-0.55317 -0.03355,0 -0.277663,0.21111 -0.542464,0.46914 -0.264801,0.25802 -0.45728,0.42349 -0.42773,0.3677 0.02955,-0.0558 0.226462,-0.27204 0.437582,-0.48055 0.214111,-0.21146 0.383852,-0.42233 0.383852,-0.47686 0,-0.13836 -1.71267,-1.85741 -1.850523,-1.85741 -0.06916,0 -0.414203,0.31061 -1.003598,0.90343 -0.494011,0.49689 -0.898204,0.92061 -0.898204,0.94161 0,0.021 0.02656,0.088 0.05901,0.14895 0.05276,0.099 0.05033,0.10362 -0.02292,0.0432 -0.04506,-0.0372 -0.114022,-0.06 -0.153248,-0.0507 -0.116596,0.0276 -4.3957746,4.26484 -4.3957746,4.35272 0,0.11406 1.5957956,1.68738 1.6898766,1.66608 0.04192,-0.009 0.642572,-0.56501 1.334782,-1.23449 1.474391,-1.42595 1.422606,-1.31965 -0.11445,0.23493 -0.596615,0.60342 -1.084754,1.1164 -1.084754,1.13995 0,0.0514 0.717472,0.78062 0.768023,0.78062 0.01942,0 1.005338,-0.97568 2.190934,-2.16817 z m 1.579328,-2.90358 c 0.01723,-0.0279 0.05416,-0.0507 0.08205,-0.0507 0.02789,0 0.0366,0.0228 0.01937,0.0507 -0.01723,0.0279 -0.05416,0.0507 -0.08204,0.0507 -0.02789,0 -0.0366,-0.0228 -0.01937,-0.0507 z m -5.078428,4.61906 c 0.157635,-0.1653 0.286609,-0.31653 0.286609,-0.33608 0,-0.0595 -1.6374336,-1.69639 -1.6969886,-1.69639 -0.06801,0 -0.635537,0.56694 -0.635537,0.63488 0,0.0684 1.6344406,1.69813 1.7030686,1.69813 0.03093,0 0.185215,-0.13525 0.342848,-0.30054 z m -4.5610826,-1.01295 1.261753,-1.26277 -0.104783,-0.14464 c -0.14533,-0.20061 -2.6163,-2.65516 -2.672924,-2.65516 -0.05813,0 -2.448423,2.37607 -2.518515,2.50352 -0.04487,0.0816 0.133043,0.27991 1.308054,1.45813 0.747992,0.75003 1.38354,1.36369 1.412325,1.36369 0.02878,0 0.620129,-0.56825 1.31409,-1.26277 z m 19.4109726,-0.65047 c 0.691532,-0.68965 1.257331,-1.29133 1.257331,-1.33707 0,-0.0457 -0.119796,-0.19056 -0.266211,-0.32182 -0.146418,-0.13127 -0.280043,-0.25421 -0.296947,-0.27321 -0.39035,-0.43881 -1.913951,-1.93646 -1.970018,-1.93646 -0.08143,0 -2.537532,2.42514 -2.537532,2.50555 0,0.0256 0.129842,0.18552 0.288541,0.35541 0.525641,0.56271 2.206072,2.26151 2.237055,2.26151 0.01675,0 0.596251,-0.56426 1.287781,-1.25391 z M 8.7936044,276.31134 c 0.199582,-0.20173 0.286895,-0.32649 0.266218,-0.38039 -0.02257,-0.0588 3.83e-4,-0.0802 0.08599,-0.0802 0.0868,0 0.6621099,-0.55459 2.2421966,-2.16146 1.168989,-1.1888 2.133363,-2.19586 2.14305,-2.2379 0.02174,-0.0944 -0.591873,-0.7231 -0.705723,-0.7231 -0.102552,0 -4.4079536,4.33567 -4.4079536,4.43895 0,0.0412 -0.02923,0.0749 -0.06497,0.0749 -0.07023,0 -0.644927,0.55934 -0.644927,0.62769 0,0.0645 0.66876,0.74169 0.732482,0.74169 0.03115,0 0.190296,-0.13509 0.353637,-0.30018 z m 13.9617516,-2.59568 c 0.662063,-0.6722 1.211754,-1.25743 1.221533,-1.30051 0.02136,-0.0941 -2.615918,-2.75193 -2.730641,-2.75193 -0.101371,0 -2.55357,2.45577 -2.528203,2.53189 0.03335,0.10006 2.701779,2.74244 2.769634,2.74259 0.03516,10e-5 0.605616,-0.54984 1.267677,-1.22204 z m 5.602245,-0.13416 c 0.746217,-0.74599 1.35676,-1.39467 1.35676,-1.44151 0,-0.0985 -0.452881,-0.50616 -0.540549,-0.48657 -0.03236,0.007 -0.568586,0.50266 -1.191617,1.10095 -1.250474,1.20084 -1.19632,1.11313 0.172541,-0.27945 0.495238,-0.50381 0.900432,-0.93768 0.900432,-0.96416 0,-0.0994 -1.810934,-1.85778 -1.894917,-1.83994 -0.09314,0.0198 -2.581695,2.42568 -2.70722,2.6173 -0.07876,0.12022 -0.0698,0.1313 0.853637,1.05595 0.513276,0.51394 0.973392,0.93444 1.022481,0.93444 0.05051,0 0.08925,0.0378 0.08925,0.087 0,0.0935 0.443521,0.57232 0.530172,0.57232 0.02875,0 0.662809,-0.61036 1.409029,-1.35634 z M 5.7812754,271.54851 c 0.641081,-0.62282 1.165603,-1.16289 1.165603,-1.20017 0,-0.0784 -2.52846,-2.56167 -2.608232,-2.56167 -0.07291,0 -2.361064,2.2924 -2.361064,2.36544 0,0.0877 2.499778,2.55566 2.574046,2.54123 0.03522,-0.007 0.588567,-0.52201 1.229647,-1.14483 z m 19.8397386,-0.70827 c 0.74534,-0.74737 1.355164,-1.38157 1.355164,-1.40932 0,-0.0277 -0.112231,-0.16103 -0.249404,-0.29617 -0.19672,-0.1938 -0.276106,-0.24059 -0.375804,-0.22153 -0.112153,0.0214 -0.119819,0.0136 -0.068,-0.0694 0.05141,-0.0823 -0.05998,-0.21239 -0.929903,-1.08577 -0.543568,-0.54573 -1.031393,-1.01609 -1.084056,-1.04525 -0.08347,-0.0462 -0.270378,0.1217 -1.457242,1.30921 -0.74882,0.74923 -1.361756,1.3849 -1.362077,1.4126 -7.67e-4,0.0667 2.696376,2.76445 2.763848,2.76445 0.02877,0 0.662133,-0.61148 1.407473,-1.35885 z m -5.807592,-0.12425 c 0.676514,-0.67623 1.230027,-1.25336 1.230027,-1.28252 0,-0.0292 -0.111687,-0.16304 -0.248195,-0.29752 -0.18498,-0.18224 -0.268341,-0.23324 -0.327294,-0.20024 -0.116841,0.0654 -2.517645,2.45748 -2.517645,2.50849 0,0.0885 0.434407,0.49535 0.532044,0.49828 0.06643,0.002 0.522285,-0.41805 1.331063,-1.22649 z m -5.165458,-0.31232 c 0.792872,-0.79725 0.92075,-0.94694 0.877692,-1.02741 -0.06277,-0.1173 -0.645168,-0.67667 -0.704537,-0.67667 -0.05443,0 -1.890806,1.84265 -1.890806,1.89727 0,0.0635 0.669817,0.74004 0.732693,0.74004 0.03128,0 0.474505,-0.41995 0.984958,-0.93323 z m 4.484136,-0.35578 c 0.660798,-0.68105 1.201449,-1.26898 1.201449,-1.3065 0,-0.0375 -0.410761,-0.47859 -0.912802,-0.98015 l -0.912801,-0.91193 -1.267604,1.2671 c -0.697182,0.6969 -1.267603,1.30127 -1.267603,1.34303 0,0.12062 1.730753,1.82674 1.853112,1.82674 0.07027,0 0.500736,-0.40808 1.306249,-1.23829 z m -2.079357,-2.08329 c 0.688887,-0.68318 1.252523,-1.2691 1.252523,-1.30204 0,-0.0754 -0.672873,-0.75244 -0.747753,-0.75244 -0.05628,0 -2.508827,2.49984 -2.539755,2.58873 -0.02515,0.0723 0.60272,0.70791 0.699284,0.70791 0.04575,0 0.646813,-0.55897 1.335701,-1.24216 z m 4.610594,0.90118 c 0.18895,-0.18754 0.343546,-0.37013 0.343546,-0.40574 0,-0.0356 0.02712,-0.0648 0.06027,-0.0648 0.09389,0 1.917307,-1.83709 1.917307,-1.93169 0,-0.0809 -0.413465,-0.50275 -0.49276,-0.50275 -0.06653,0 -1.890474,1.84672 -1.890474,1.91407 0,0.0352 -0.03357,0.0639 -0.0746,0.0639 -0.101308,0 -0.78742,0.65819 -0.78742,0.75538 0,0.10131 0.404122,0.51256 0.503678,0.51256 0.0423,0 0.231502,-0.15344 0.420453,-0.34098 z M 6.362144e-6,296.57484 c 0,-0.0418 0.022819997856,-0.0902 0.050709997856,-0.10742 0.02788,-0.0172 0.05071,0.003 0.05071,0.0447 0,0.0418 -0.02281,0.0902 -0.05071,0.10742 -0.0279,0.0172 -0.050709997856,-0.003 -0.050709997856,-0.0447 z M 31.675034,289.51067 c -0.01859,-0.0186 -0.0338,-0.0574 -0.0338,-0.0862 0,-0.0318 0.02362,-0.0288 0.06001,0.008 0.033,0.033 0.04821,0.0718 0.0338,0.0862 -0.01441,0.0144 -0.04141,0.011 -0.06,-0.008 z M 6.362144e-6,289.24616 c 0,-0.0279 0.022819997856,-0.0648 0.050709997856,-0.0821 0.02788,-0.0172 0.05071,-0.009 0.05071,0.0194 0,0.0279 -0.02281,0.0648 -0.05071,0.0821 -0.0279,0.0172 -0.050709997856,0.009 -0.050709997856,-0.0194 z M 31.641229,282.67525 c 0,-0.0435 0.02282,-0.0791 0.05071,-0.0791 0.02788,0 0.05071,0.0215 0.05071,0.0477 0,0.0263 -0.02281,0.0618 -0.05071,0.0791 -0.02789,0.0172 -0.05071,-0.004 -0.05071,-0.0477 z M 0.03698036,282.00764 c -0.02033,-0.0203 -0.03696999786,-0.072 -0.03696999786,-0.11474 0,-0.0571 0.01500999786,-0.0628 0.05640999786,-0.0213 0.03102,0.031 0.04766,0.0827 0.03697,0.11475 -0.0107,0.0321 -0.03607,0.0417 -0.05641,0.0213 z M 31.641229,277.20075 c 0,-0.0418 0.02282,-0.0902 0.05071,-0.10742 0.02788,-0.0172 0.05071,0.003 0.05071,0.0447 0,0.0419 -0.02281,0.0902 -0.05071,0.10742 -0.02789,0.0172 -0.05071,-0.003 -0.05071,-0.0447 z"
       style="fill:#292929;stroke-width:0.05071229;fill-opacity:1" />
  </g>
</svg>
