<?xml version="1.0" encoding="UTF-8" standalone="no"?>
<!-- Created with Inkscape (http://www.inkscape.org/) -->

<svg
   xmlns:dc="http://purl.org/dc/elements/1.1/"
   xmlns:cc="http://creativecommons.org/ns#"
   xmlns:rdf="http://www.w3.org/1999/02/22-rdf-syntax-ns#"
   xmlns:svg="http://www.w3.org/2000/svg"
   xmlns="http://www.w3.org/2000/svg"
   xmlns:sodipodi="http://sodipodi.sourceforge.net/DTD/sodipodi-0.dtd"
   xmlns:inkscape="http://www.inkscape.org/namespaces/inkscape"
   width="120"
   height="120"
   viewBox="0 0 31.749999 31.750001"
   version="1.1"
   id="svg8"
   inkscape:version="0.92.1 unknown"
   sodipodi:docname="logo.svg">
  <defs
     id="defs2" />
  <sodipodi:namedview
     id="base"
     pagecolor="#ffffff"
     bordercolor="#666666"
     borderopacity="1.0"
     inkscape:pageopacity="0.0"
     inkscape:pageshadow="2"
     inkscape:zoom="3.1760346"
     inkscape:cx="51.260281"
     inkscape:cy="53.344037"
     inkscape:document-units="px"
     inkscape:current-layer="layer1"
     showgrid="false"
     units="px" />
  <metadata
     id="metadata5">
    <rdf:RDF>
      <cc:Work
         rdf:about="">
        <dc:format>image/svg+xml</dc:format>
        <dc:type
           rdf:resource="http://purl.org/dc/dcmitype/StillImage" />
        <dc:title />
      </cc:Work>
    </rdf:RDF>
  </metadata>
  <g
     inkscape:label="Camada 1"
     inkscape:groupmode="layer"
     id="layer1"
     transform="translate(0,-265.24998)">
    <circle
       r="0"
       cy="239.62141"
       cx="-88.925354"
       id="ellipse4500"
       style="opacity:1;fill:#777777;fill-opacity:0.76100631;stroke:none;stroke-width:0.26458332;stroke-miterlimit:4;stroke-dasharray:none;stroke-opacity:1" />
    <ellipse
       cy="281.2153"
       cx="15.875"
       id="circle4502"
       style="opacity:1;fill:#111111;fill-opacity:1;stroke:none;stroke-width:0.48469612;stroke-miterlimit:4;stroke-dasharray:none;stroke-opacity:1"
       rx="15.875"
       ry="15.784687" />
    <ellipse
       style="opacity:1;fill:none;fill-opacity:0.76100631;stroke:#cccccc;stroke-width:0.4210628;stroke-miterlimit:4;stroke-dasharray:none;stroke-opacity:1"
       id="path4498"
       cx="15.875"
       cy="281.2153"
       rx="13.790853"
       ry="13.712396" />
    <path
       style="opacity:1;fill:#111111;fill-opacity:1;stroke:none;stroke-width:2.7600584;stroke-miterlimit:4;stroke-dasharray:none;stroke-opacity:1"
       d="m 19.666734,266.69565 0.463709,0.25806 c 2.6623,-2.77238 2.889996,-0.50438 3.601418,2.00424 l 0.729133,0.40577 0.08831,3.73046 -6.93005,-4.28874 z"
       id="rect4737"
       inkscape:connector-curvature="0"
       sodipodi:nodetypes="ccccccc" />
    <path
       sodipodi:nodetypes="cscccc"
       inkscape:connector-curvature="0"
       id="path4740"
       d="m 11.707886,291.878 c 0.838281,0.31545 0.694226,1.05976 0.05352,1.60874 -0.620894,0.532 -1.720523,0.8683 -2.083353,1.20997 l -0.3060294,-0.32569 -1.1651405,-2.7092 c 3.0167209,-3.36438 3.0031399,-1.5109 3.5010069,0.21618 z"
       style="opacity:1;fill:#111111;fill-opacity:1;stroke:none;stroke-width:2.7600584;stroke-miterlimit:4;stroke-dasharray:none;stroke-opacity:1" />
    <path
       style="fill:#cccccc;stroke-width:0.05337309"
       d="m 9.0674648,292.71884 c -0.3231573,-0.78335 -0.5943628,-1.45708 -0.6026682,-1.49718 -0.013534,-0.0653 0.4155445,-0.31189 0.5427429,-0.31189 0.026908,0 0.2384148,0.22658 0.4700818,0.50352 0.2316703,0.27692 0.4300487,0.49386 0.4408406,0.4821 0.010757,-0.0118 -0.095375,-0.29014 -0.2359187,-0.61859 l -0.2555299,-0.59717 0.2844935,-0.14214 c 0.1569088,-0.0784 0.3031342,-0.12054 0.3260622,-0.094 0.0563,0.0652 1.232793,2.93166 1.212387,2.95393 -0.03147,0.0343 -0.611459,0.30466 -0.619205,0.28859 -0.01219,-0.0252 -0.7010152,-0.89445 -0.8082576,-1.01991 -0.093552,-0.10945 -0.093948,-0.1079 -0.021035,0.0836 0.040857,0.10733 0.1568259,0.39273 0.2576976,0.63422 0.100881,0.24149 0.183418,0.45795 0.183418,0.481 0,0.0415 -0.4656072,0.27894 -0.5459353,0.27842 -0.022854,-1.4e-4 -0.3060263,-0.64117 -0.6291804,-1.42452 z m 2.6974262,0.20115 c -0.172559,-0.14812 -0.416675,-0.75181 -0.375831,-0.9294 0.01743,-0.0756 0.157404,-0.28678 0.311134,-0.46927 0.153733,-0.18249 0.279514,-0.34556 0.279514,-0.36239 0,-0.10204 -0.218724,-0.47218 -0.279029,-0.47218 -0.126295,0 -0.133065,0.0937 -0.02643,0.36527 0.05699,0.14511 0.0973,0.26754 0.08957,0.27208 -0.222136,0.13037 -0.560088,0.26268 -0.613655,0.24025 -0.07835,-0.0328 -0.19233,-0.3949 -0.19233,-0.61098 0,-0.22253 0.209464,-0.50003 0.504344,-0.66815 0.45306,-0.25828 0.834632,-0.19527 1.032392,0.1705 0.133074,0.24613 0.824935,1.91 0.803603,1.93258 -0.0086,0.009 -0.15313,0.0828 -0.321156,0.16371 -0.263765,0.12704 -0.313029,0.1359 -0.360602,0.0649 -0.04554,-0.068 -0.06495,-0.0537 -0.111899,0.082 -0.03665,0.10595 -0.121153,0.19357 -0.238099,0.2469 -0.240937,0.10986 -0.350005,0.10424 -0.501561,-0.0259 z m 0.672128,-0.63622 c -0.0016,-0.0351 -0.06623,-0.21427 -0.144116,-0.39826 -0.137218,-0.32421 -0.143592,-0.3305 -0.206192,-0.2039 -0.07434,0.15034 -0.04916,0.29651 0.0949,0.55121 0.09793,0.1731 0.261518,0.20574 0.255406,0.051 z m 1.344457,-0.42501 c -0.126344,-0.0841 -0.230946,-0.25805 -0.444052,-0.73857 -0.153328,-0.34572 -0.30641,-0.74173 -0.340183,-0.88001 -0.05501,-0.22526 -0.05001,-0.2758 0.048,-0.48546 0.192298,-0.41134 0.739183,-0.65448 1.131423,-0.50304 0.121322,0.0468 0.233191,0.15782 0.347908,0.34515 l 0.169083,0.2761 -0.220176,0.12096 c -0.407112,0.22365 -0.43334,0.22245 -0.54914,-0.0253 -0.122874,-0.26284 -0.177021,-0.30912 -0.249781,-0.21346 -0.07421,0.0976 0.545902,1.6201 0.670526,1.64629 0.142963,0.0301 0.160775,-0.15202 0.04116,-0.42071 -0.06164,-0.13845 -0.105271,-0.25546 -0.09696,-0.26004 0.234999,-0.12922 0.519111,-0.25699 0.571497,-0.25699 0.03784,0 0.107005,0.13438 0.155161,0.30145 0.07016,0.24343 0.07619,0.34482 0.03131,0.52675 -0.128093,0.51912 -0.850951,0.84284 -1.265763,0.56684 z m 1.502388,-1.88801 c -0.27219,-0.66417 -0.49471,-1.22297 -0.494492,-1.24179 3.51e-4,-0.0385 0.573813,-0.32821 0.649513,-0.32821 0.03614,0 0.841381,1.87519 1.020457,2.37638 0.01229,0.0344 -0.0077,0.076 -0.04447,0.0924 -0.03674,0.0165 -0.1949,0.0927 -0.351461,0.16936 l -0.284661,0.13944 z m 1.675713,0.25862 c -0.08667,-0.0744 -0.254063,-0.37673 -0.424478,-0.76664 -0.432619,-0.9899 -0.416833,-1.39578 0.06631,-1.70477 0.132681,-0.0848 0.339826,-0.15756 0.497861,-0.17476 0.467883,-0.0509 0.641845,0.15317 1.061919,1.24579 0.243644,0.63371 0.189142,1.03943 -0.171775,1.2787 -0.412074,0.27321 -0.799936,0.31902 -1.029834,0.12168 z m 0.711215,-0.48047 c 0.03081,-0.0544 -0.557483,-1.51116 -0.65254,-1.61579 -0.05404,-0.0595 -0.07587,-0.0593 -0.12168,9.6e-4 -0.05618,0.0739 -0.0152,0.19395 0.438165,1.28428 0.143163,0.34428 0.262063,0.46126 0.336055,0.33059 z m 0.876166,-1.41046 c -0.27592,-0.67265 -0.491548,-1.23404 -0.479171,-1.24754 0.03893,-0.0425 0.605479,-0.30708 0.657517,-0.30708 0.02729,0 0.0506,0.0439 0.05178,0.0976 0.0013,0.0615 0.03618,0.0278 0.09419,-0.0909 0.10591,-0.2169 0.275582,-0.33635 0.481817,-0.33919 0.310086,-0.004 0.357579,0.0716 0.953397,1.52343 0.174413,0.42499 0.297771,0.79306 0.274125,0.81795 -0.02364,0.0249 -0.175379,0.10868 -0.337184,0.18622 l -0.294192,0.14098 -0.0688,-0.17834 c -0.235985,-0.61171 -0.723743,-1.75164 -0.776949,-1.8158 -0.06834,-0.0824 -0.175446,-0.0422 -0.174967,0.0656 1.51e-4,0.0365 0.180462,0.50549 0.400665,1.04214 0.318775,0.77687 0.385923,0.98511 0.329478,1.02174 -0.03899,0.0253 -0.192196,0.10455 -0.340456,0.1761 l -0.269564,0.13011 z m -6.14341,0.0205 c -0.100431,-0.23766 -0.374831,-0.88272 -0.609773,-1.43345 -0.234942,-0.55074 -0.42717,-1.03012 -0.42717,-1.06529 0,-0.11244 1.070209,-0.59628 1.380034,-0.62391 0.256341,-0.0228 0.29474,-0.0109 0.428817,0.13396 0.322145,0.34796 0.441427,0.93715 0.223457,1.10376 l -0.113553,0.0868 h 0.153277 c 0.251859,0 0.381803,0.15411 0.646698,0.76696 0.13839,0.32017 0.244291,0.58923 0.235339,0.59793 -0.03101,0.0301 -0.652126,0.36356 -0.677189,0.36356 -0.01382,0 -0.150847,-0.28854 -0.304456,-0.6412 -0.153608,-0.35265 -0.309623,-0.64081 -0.346704,-0.64034 -0.18622,0.002 -0.177379,0.0937 0.06331,0.65393 0.357308,0.83169 0.361802,0.75153 -0.05342,0.95414 -0.197564,0.0964 -0.37199,0.17526 -0.387627,0.17526 -0.01567,0 -0.110594,-0.19444 -0.211035,-0.4321 z m 0.393632,-1.94171 c 0,-0.17122 -0.205343,-0.52549 -0.30458,-0.52549 -0.160647,0 -0.164803,0.0878 -0.01944,0.41128 0.118114,0.2628 0.151227,0.29901 0.230936,0.25246 0.05119,-0.0299 0.09306,-0.0921 0.09306,-0.13825 z m 1.819713,1.94572 -0.08374,-0.19164 0.331555,-0.16405 c 0.182354,-0.0902 0.342961,-0.16406 0.356909,-0.16406 0.03252,0 0.194229,0.33942 0.17225,0.36156 -0.0091,0.009 -0.168798,0.0916 -0.354886,0.18324 l -0.338349,0.16658 z m 6.497831,-0.0149 c -0.172555,-0.14813 -0.416679,-0.75182 -0.375833,-0.92941 0.01738,-0.0756 0.157402,-0.28679 0.31113,-0.46927 0.153732,-0.18249 0.279518,-0.34556 0.279518,-0.36238 0,-0.10206 -0.218726,-0.47219 -0.279032,-0.47219 -0.126288,0 -0.133063,0.0937 -0.02639,0.36527 0.057,0.1451 0.0973,0.26754 0.08957,0.27208 -0.222131,0.13037 -0.560082,0.26267 -0.613647,0.24024 -0.07836,-0.0328 -0.192337,-0.39487 -0.192337,-0.61097 0,-0.22254 0.20947,-0.50003 0.504345,-0.66814 0.453057,-0.25829 0.834633,-0.19528 1.032389,0.17048 0.133076,0.24615 0.824939,1.91001 0.803604,1.9326 -0.0086,0.009 -0.153126,0.0828 -0.321153,0.1637 -0.263773,0.12704 -0.31303,0.1359 -0.360601,0.0649 -0.04554,-0.068 -0.06495,-0.0537 -0.111904,0.082 -0.03665,0.10596 -0.121144,0.19359 -0.238093,0.24691 -0.240942,0.10986 -0.35001,0.10424 -0.501558,-0.0259 z m 0.672125,-0.63623 c -0.0017,-0.0351 -0.06623,-0.21427 -0.144114,-0.39827 -0.137219,-0.32419 -0.143588,-0.3305 -0.206195,-0.20388 -0.07433,0.15032 -0.04916,0.29651 0.09491,0.55119 0.09792,0.17312 0.261511,0.20576 0.255403,0.051 z m 1.162508,-0.61141 c -0.100264,-0.25076 -0.378398,-0.92839 -0.61808,-1.50583 l -0.435779,-1.0499 0.336803,-0.16665 c 0.185241,-0.0917 0.354813,-0.1461 0.376818,-0.12099 0.03539,0.0404 1.223922,2.89851 1.223922,2.94321 0,0.01 -0.02873,0.0307 -0.06386,0.0464 -0.03513,0.0158 -0.19294,0.0919 -0.350697,0.16917 l -0.286831,0.14048 z m -8.123737,0.30921 c -0.146499,-0.17666 -0.353922,-0.73534 -0.322975,-0.8699 0.01607,-0.0699 0.170124,-0.29491 0.342321,-0.5 0.338433,-0.40305 0.357086,-0.49662 0.153115,-0.76815 -0.0886,-0.11795 -0.108074,-0.12332 -0.177244,-0.0489 -0.06951,0.0748 -0.06707,0.1095 0.02317,0.3289 0.05547,0.1349 0.09471,0.25111 0.08718,0.25823 -0.02736,0.0259 -0.650014,0.36072 -0.670873,0.36072 -0.04933,0 -0.185827,-0.46229 -0.185827,-0.62937 0,-0.56223 0.934423,-1.1253 1.44562,-0.87112 0.06712,0.0334 0.184088,0.17765 0.259929,0.3206 0.157921,0.29767 0.80721,1.80269 0.786283,1.82258 -0.0076,0.007 -0.161815,0.0941 -0.342632,0.19305 -0.301439,0.16493 -0.33397,0.17211 -0.391402,0.0864 -0.05751,-0.0858 -0.06533,-0.0842 -0.09548,0.0195 -0.01805,0.0621 -0.102347,0.17673 -0.187303,0.25475 -0.192947,0.17717 -0.592818,0.2008 -0.723878,0.0427 z m 0.770536,-0.58393 c 0.03738,-0.0496 0.0087,-0.17415 -0.09955,-0.43212 l -0.15207,-0.3624 -0.07412,0.15223 c -0.06519,0.13388 -0.06462,0.17705 0.0047,0.35814 0.130832,0.34171 0.218903,0.41967 0.321026,0.28415 z m 1.426443,-0.56499 c -0.151374,-0.17878 -0.802257,-1.7615 -0.802257,-1.95082 0,-0.0827 0.03499,-0.20875 0.07776,-0.27999 0.103975,-0.17317 0.439344,-0.33246 0.634243,-0.30124 0.08611,0.0138 0.156558,0.02 0.156558,0.0138 0,-0.006 -0.05869,-0.1561 -0.130417,-0.3331 -0.07173,-0.177 -0.111965,-0.33801 -0.08941,-0.35781 0.08164,-0.0717 0.678973,-0.35714 0.698584,-0.33386 0.01105,0.0131 0.221358,0.5006 0.467317,1.08325 0.245958,0.58265 0.523985,1.24127 0.617839,1.4636 l 0.17064,0.40425 -0.363496,0.19976 c -0.248292,0.13645 -0.374788,0.17983 -0.399121,0.13685 -0.02287,-0.0404 -0.109647,0.0179 -0.242311,0.16264 -0.182448,0.19911 -0.234633,0.22556 -0.445047,0.22556 -0.185609,0 -0.263268,-0.0295 -0.350884,-0.13288 z m 0.832684,-0.64955 c 0,-0.0558 -0.141481,-0.42945 -0.314405,-0.83038 -0.23621,-0.54765 -0.337867,-0.72895 -0.408735,-0.72895 -0.05863,0 -0.09433,0.0401 -0.09433,0.10599 0,0.10279 0.529075,1.41581 0.624343,1.54943 0.06513,0.0914 0.193127,0.0276 0.193127,-0.0961 z m 9.17702,0.7228 c -0.346169,-0.0929 -0.813304,-0.40079 -1.134113,-0.74759 -0.363141,-0.39255 -0.638633,-0.95611 -0.777388,-1.59029 -0.08866,-0.40523 -0.09854,-0.42212 -0.319211,-0.54548 -0.144851,-0.081 -0.272793,-0.11521 -0.351594,-0.0941 -0.09843,0.0264 -0.112414,0.0182 -0.06808,-0.0401 0.04082,-0.0537 0.03684,-0.11074 -0.0148,-0.2126 -0.10074,-0.19863 -0.08997,-0.4449 0.02876,-0.65741 0.08206,-0.14687 0.09123,-0.20681 0.0458,-0.29943 -0.09449,-0.19267 0.0364,-0.0634 0.151658,0.14976 0.103727,0.19187 0.103858,0.19527 0.0051,0.13761 -0.125735,-0.0734 -0.132493,0.008 -0.01062,0.12849 0.06197,0.0612 0.114413,0.073 0.166048,0.0374 0.04151,-0.0286 0.121452,-0.0496 0.177656,-0.0465 l 0.102183,0.006 -0.102183,0.0274 c -0.164525,0.0441 -0.229914,0.12975 -0.229914,0.30103 0,0.17175 0.155138,0.38346 0.281004,0.38346 0.04215,0 0.07175,0.0188 0.06578,0.0418 -0.006,0.023 0.01982,0.10232 0.05731,0.17627 0.03749,0.0739 0.09751,0.28722 0.133397,0.47393 0.03588,0.18671 0.12379,0.48375 0.195344,0.66008 l 0.130106,0.32059 0.271044,0.003 c 0.233388,0.003 0.388167,0.0669 1.114061,0.45999 0.733947,0.39749 0.844981,0.47497 0.858205,0.59886 0.03008,0.28169 -0.34944,0.44207 -0.775553,0.32776 z m -1.936517,-0.6021 c -0.423172,-0.10475 -1.671477,-1.52962 -1.671477,-1.9079 0,-0.0545 0.07472,-0.15541 0.166049,-0.22428 l 0.166045,-0.12521 -0.123743,0.14916 -0.123749,0.14915 0.123749,0.29286 c 0.158119,0.37419 0.759619,1.03784 1.290366,1.42366 0.220136,0.16004 0.381074,0.28801 0.357646,0.28437 -0.02344,-0.004 -0.10663,-0.0225 -0.184886,-0.0418 z M 7.8990782,285.66432 C 7.3133623,285.53871 6.9511773,285.21634 6.5060723,284.42448 6.0971,283.6969 5.5778401,283.13261 4.8108674,282.58225 4.1663242,282.11975 4.027421,281.94052 3.9783451,281.50812 l -0.030866,-0.27207 0.1374189,0.29209 c 0.1833285,0.38968 0.4737717,0.65573 1.0747099,0.98445 0.6796224,0.37174 1.0338595,0.75805 1.40179,1.52866 0.2124708,0.44501 0.3424238,0.64201 0.5749304,0.87163 0.2969994,0.29331 0.7890609,0.59701 1.1886489,0.73363 l 0.2060359,0.0704 -0.2043697,-0.002 c -0.1124006,-10e-4 -0.3047973,-0.0239 -0.4275525,-0.0502 z M 18.85913,284.16687 c -0.271108,-0.64199 -0.492925,-1.19062 -0.492925,-1.21917 0,-0.0699 0.733197,-0.42457 0.75407,-0.36481 0.009,0.0259 0.242513,0.57395 0.518822,1.21793 l 0.502385,1.17088 -0.338399,0.17904 c -0.186122,0.0985 -0.363744,0.18003 -0.394714,0.18121 -0.03098,10e-4 -0.278131,-0.52311 -0.549239,-1.16508 z m 5.995754,0.17481 -0.229914,-0.42444 -0.348731,-0.0949 c -0.191801,-0.0522 -0.364236,-0.11289 -0.38319,-0.13483 -0.01895,-0.0219 0.01152,-0.0261 0.06773,-0.009 0.0562,0.017 0.24855,0.0479 0.427441,0.0689 l 0.325263,0.0381 0.200829,0.47437 c 0.110455,0.26091 0.194002,0.48157 0.185656,0.49036 -0.0083,0.009 -0.118629,-0.17501 -0.245081,-0.40845 z m -4.1752,0.0462 c -0.125116,-0.0833 -0.233615,-0.26342 -0.453362,-0.75281 -0.283854,-0.63215 -0.372364,-0.99705 -0.308843,-1.27324 0.07565,-0.32894 0.664275,-0.70767 1.099868,-0.70767 0.329324,0 0.510483,0.18445 0.78582,0.80005 0.42404,0.94807 0.442683,1.26941 0.09362,1.61356 -0.209229,0.20628 -0.685269,0.4301 -0.914038,0.42975 -0.07622,-1e-4 -0.212604,-0.0495 -0.303065,-0.10964 z m 0.752037,-0.58901 c 0,-0.0942 -0.539296,-1.40599 -0.623837,-1.51743 -0.07967,-0.10503 -0.193637,-0.0837 -0.193637,0.0362 0,0.0583 0.09441,0.32801 0.209805,0.59938 0.115394,0.27138 0.252522,0.60005 0.304737,0.73038 0.067,0.16724 0.125534,0.23696 0.198931,0.23696 0.05941,0 0.104001,-0.0367 0.104001,-0.0855 z m -8.890004,0.45911 c 0,-0.0399 0.02116,-0.0963 0.04707,-0.12545 0.02589,-0.0291 0.09695,-0.21576 0.157921,-0.41472 0.129474,-0.42254 0.148284,-1.12877 0.04811,-1.80643 l -0.06274,-0.42448 h -0.404274 c -0.457853,0 -0.68224,-0.0926 -0.759104,-0.31319 -0.06912,-0.19839 -0.02266,-0.35481 0.316543,-1.06635 0.335063,-0.70283 0.373472,-0.97616 0.207303,-1.47533 -0.111491,-0.33493 -0.385001,-0.75631 -0.53393,-0.82262 -0.06345,-0.0282 -0.333824,-0.15326 -0.600833,-0.27779 -0.267001,-0.12453 -0.49922,-0.22643 -0.516032,-0.22643 -0.01682,0 -0.207635,0.25091 -0.424058,0.55756 -0.2164094,0.30667 -0.4042576,0.55757 -0.4174275,0.55757 -0.030196,0 0.1321139,-0.35007 0.4187365,-0.90297 0.257975,-0.49765 0.464952,-1.05389 0.63393,-1.70363 0.115155,-0.44277 0.202758,-0.59006 0.202758,-0.3409 0,0.10914 0.01928,0.11621 0.230795,0.0846 0.482017,-0.0721 0.682751,-0.33743 0.623014,-0.82348 -0.01462,-0.11908 -0.01778,-0.21652 -0.007,-0.21652 0.01076,0 0.0661,0.0994 0.122863,0.2208 0.211424,0.45227 0.112921,0.64524 -0.489638,0.95918 -0.270082,0.14071 -0.468298,0.28485 -0.537422,0.39079 -0.118073,0.18095 -0.179617,0.56588 -0.127033,0.79452 0.05669,0.24649 0.327087,0.52628 0.591382,0.61193 0.547914,0.17758 0.820584,0.46342 1.072839,1.12468 0.222509,0.58328 0.210639,0.67505 -0.18329,1.41716 -0.189559,0.3571 -0.3498,0.73034 -0.364346,0.84862 -0.02477,0.20123 -0.01689,0.21526 0.168262,0.29967 0.147624,0.0673 0.277366,0.0794 0.540953,0.0505 0.334661,-0.0367 0.347722,-0.0334 0.374968,0.0929 0.162572,0.75366 0.578065,2.9774 0.559996,2.99712 -0.04717,0.0515 -0.114559,-0.0858 -0.196898,-0.40103 -0.04634,-0.17742 -0.108516,-0.39069 -0.138175,-0.47392 l -0.05393,-0.15135 -0.08854,0.25089 c -0.04869,0.138 -0.128912,0.37009 -0.178256,0.51575 -0.08187,0.24167 -0.234546,0.36689 -0.234546,0.19236 z m 11.612276,-0.94263 c -0.110575,-0.0583 -0.197206,-0.26511 -0.228692,-0.54606 -0.01199,-0.10696 -0.04533,-0.13939 -0.14335,-0.13939 -0.100579,0 -0.131097,0.0318 -0.143568,0.14963 -0.0087,0.0823 0.01932,0.22381 0.06229,0.3145 l 0.07813,0.16487 -0.292203,-0.1615 c -0.309941,-0.17132 -0.47102,-0.33791 -0.47102,-0.48713 0,-0.05 0.07804,-0.21658 0.173426,-0.37017 0.09539,-0.15361 0.187756,-0.33178 0.205263,-0.39597 0.04097,-0.15018 -0.122446,-0.3808 -0.370746,-0.52321 -0.326933,-0.18748 -0.995716,-0.94271 -1.159297,-1.30914 -0.169344,-0.37931 -0.208981,-0.86233 -0.07486,-0.91208 0.06577,-0.0244 0.06668,-0.0153 0.0064,0.0644 -0.08866,0.11721 -0.04978,0.34391 0.124346,0.72492 0.116804,0.25559 0.505407,0.76155 0.584912,0.76155 0.01661,0 0.02079,-0.088 0.0093,-0.19549 -0.01149,-0.10751 -0.0056,-0.28471 0.01316,-0.39375 0.02813,-0.16359 0.05368,-0.19522 0.146126,-0.18087 0.08604,0.0133 0.108716,0.0498 0.0977,0.15679 -0.07393,0.71826 -0.07308,0.78219 0.01222,0.92424 0.07536,0.12552 0.418206,0.34086 0.46368,0.29123 0.0089,-0.01 -0.0091,-0.12142 -0.04017,-0.2482 -0.07928,-0.32415 0.002,-0.87538 0.13329,-0.90242 0.159931,-0.033 0.19363,0.0653 0.110519,0.32238 -0.190168,0.58821 -0.04596,0.93709 0.410537,0.99324 l 0.239069,0.0294 -0.07935,-0.13343 c -0.08287,-0.13935 -0.110545,-0.36086 -0.09505,-0.76069 0.0081,-0.21014 0.02304,-0.23698 0.131719,-0.23698 0.120387,0 0.122403,0.008 0.114956,0.47841 -0.0071,0.44577 10e-4,0.486 0.11811,0.58991 0.09785,0.0868 0.184487,0.10745 0.3912,0.0931 0.292766,-0.0203 0.323709,0.0324 0.05172,0.0881 -0.241109,0.0494 -1.081395,-0.0624 -1.270156,-0.16889 l -0.156109,-0.0881 0.110307,0.19478 c 0.125983,0.22245 0.109969,0.30158 -0.143373,0.70845 -0.08592,0.13799 -0.156328,0.29043 -0.156448,0.33874 -2.58e-4,0.0952 0.165345,0.28029 0.336869,0.37653 0.106088,0.0595 0.10641,0.0576 0.03165,-0.1902 -0.04153,-0.13769 -0.06486,-0.26197 -0.05183,-0.27619 0.01303,-0.0142 0.151082,0.002 0.306783,0.0362 l 0.28309,0.062 0.03051,0.28113 c 0.01932,0.17815 0.07174,0.32902 0.143065,0.41188 0.124493,0.14462 0.120565,0.15027 -0.04413,0.0635 z m 1.001473,-0.19391 c 0.146287,-0.31223 0.02364,-0.69068 -0.268821,-0.82959 -0.101621,-0.0483 -0.125833,-0.0765 -0.06672,-0.0779 0.05102,-0.001 0.137243,0.0237 0.191594,0.0555 0.07838,0.0458 0.09883,0.0394 0.09883,-0.0307 0,-0.16681 0.148564,-0.4017 0.291368,-0.46071 0.0786,-0.0325 0.327888,-0.0725 0.553975,-0.0889 0.226086,-0.0164 0.456,-0.0456 0.510918,-0.0649 0.09876,-0.0347 0.09877,-0.0341 6.7e-4,0.0531 -0.07037,0.0626 -0.20811,0.0882 -0.474245,0.0882 -0.674472,0 -0.904252,0.21467 -0.773839,0.72297 0.08019,0.31256 0.06534,0.56185 -0.03997,0.67088 -0.07298,0.0756 -0.07529,0.0719 -0.02378,-0.0381 z m -6.97271,-0.52918 c -0.04439,-0.0937 -0.06151,-0.19095 -0.03804,-0.21616 0.02348,-0.0252 0.198134,-0.12179 0.38815,-0.2146 l 0.345483,-0.16872 0.06938,0.17917 c 0.03816,0.0985 0.05513,0.19558 0.03771,0.21565 -0.01741,0.0201 -0.186996,0.11264 -0.376828,0.20573 l -0.345151,0.16925 z m 7.327231,-1.85019 -0.903204,-0.79635 -0.566261,-0.18623 c -0.604408,-0.19879 -0.722659,-0.27923 -0.616213,-0.41919 0.05251,-0.0691 0.04765,-0.0836 -0.02783,-0.0836 -0.05027,0 -0.07891,-0.0136 -0.06365,-0.0303 0.03031,-0.0331 1.23058,0.34168 1.391076,0.43431 0.05443,0.0314 0.456781,0.37179 0.894109,0.75639 0.437331,0.38459 0.823884,0.72299 0.859009,0.75199 0.04151,0.0342 0.0907,0.0284 0.140504,-0.0168 0.06277,-0.0568 0.07664,-0.053 0.07664,0.021 0,0.0498 -0.03405,0.0905 -0.07566,0.0905 -0.04162,0 -0.09009,0.0627 -0.107725,0.13939 -0.01762,0.0767 -0.04681,0.13844 -0.06484,0.13727 -0.01805,-0.001 -0.43922,-0.36047 -0.935983,-0.79846 z m -9.570649,0.12492 c -2.025982,-1.23988 -2.339745,-1.46173 -2.622324,-1.85412 -0.200718,-0.27874 -0.244852,-0.37355 -0.194918,-0.41878 0.0483,-0.0437 0.16666,0.051 0.470146,0.3763 0.524237,0.56194 1.000248,0.86217 2.142727,1.35145 1.17452,0.50302 1.864855,0.83097 1.864855,0.88594 0,0.10287 -0.268452,0.22333 -0.496348,0.22269 -0.214496,-6.3e-4 -0.35729,-0.0697 -1.164138,-0.56348 z m 9.838298,-0.6057 c -0.458171,-0.40271 -0.883169,-0.76804 -0.944445,-0.81185 -0.06127,-0.0438 -0.363105,-0.16231 -0.670735,-0.26331 -0.491244,-0.1613 -0.561436,-0.19974 -0.576656,-0.31582 -0.01665,-0.12706 -0.0078,-0.13092 0.229914,-0.0998 0.135983,0.0178 0.441092,0.0993 0.678015,0.18124 0.404513,0.13984 0.485059,0.19671 1.321571,0.93323 0.780774,0.68744 0.902692,0.77622 0.987032,0.71874 0.06214,-0.0424 0.09623,-0.0451 0.09623,-0.008 0,0.0319 -0.03518,0.0727 -0.07818,0.0907 -0.043,0.018 -0.107772,0.0944 -0.143943,0.16971 l -0.06576,0.13696 z M 5.0822931,280.4595 c 0,-0.0131 0.1271696,-0.0873 0.2826038,-0.16499 0.3916306,-0.19565 0.8021478,-0.6437 1.3054832,-1.42483 0.235625,-0.36568 0.4350536,-0.65763 0.4431579,-0.64878 0.0301,0.0328 -0.3115579,1.02014 -0.4741388,1.37029 -0.2988922,0.64374 -0.6394903,0.8921 -1.2233612,0.8921 -0.1835647,0 -0.3337449,-0.0107 -0.3337449,-0.0237 z m 20.7881349,-0.86214 -0.887816,-0.77442 -0.587459,-0.19079 c -0.443818,-0.14413 -0.591837,-0.21557 -0.605359,-0.2922 -0.03877,-0.2197 0.09398,-0.21324 0.8979,0.0438 0.397125,0.12696 0.467752,0.1758 1.277299,0.88311 0.907976,0.79331 1.035751,0.88332 1.035751,0.72963 0,-0.0683 0.0151,-0.0765 0.05686,-0.031 0.06715,0.0733 0.01795,0.18328 -0.08198,0.18328 -0.0386,0 -0.08478,0.0502 -0.102611,0.11151 -0.01785,0.0613 -0.05096,0.11151 -0.0736,0.11151 -0.02267,0 -0.440687,-0.34849 -0.928984,-0.77442 z m 0.210341,-0.55601 c -0.872522,-0.76831 -0.88061,-0.7738 -1.37112,-0.92982 -0.635321,-0.20208 -0.730609,-0.24976 -0.712029,-0.35629 0.02492,-0.14282 0.226357,-0.13449 0.774361,0.032 l 0.517183,0.15717 0.913037,0.79675 c 0.726546,0.63402 0.927433,0.78371 0.983522,0.73292 0.05499,-0.0498 0.07048,-0.0439 0.07048,0.0267 0,0.0497 -0.03664,0.0905 -0.08142,0.0905 -0.04478,0 -0.09345,0.0502 -0.108141,0.11151 -0.0147,0.0613 -0.04505,0.11151 -0.06745,0.11151 -0.0224,0 -0.43569,-0.3478 -0.918424,-0.77287 z m -5.945529,0.66136 c -0.05736,-0.18542 -0.141294,-0.73555 -0.116369,-0.76276 0.01467,-0.016 0.10348,0.0349 0.197374,0.11301 0.294915,0.24548 0.304958,0.1365 0.06751,-0.73235 -0.11974,-0.43816 -0.192079,-0.78789 -0.160751,-0.77717 0.09111,0.0312 0.38148,0.53146 0.438494,0.75548 0.0287,0.11276 0.05231,0.37586 0.05247,0.58463 2.51e-4,0.37273 -0.0038,0.38434 -0.226284,0.6412 -0.166022,0.19168 -0.233481,0.23924 -0.252442,0.17796 z m 2.176804,-0.48877 c -0.235642,-0.0748 -0.265212,-0.10012 -0.236945,-0.2026 0.05413,-0.19622 0.08581,-0.20138 0.490104,-0.0798 0.379499,0.11411 0.389111,0.12124 0.335687,0.2492 -0.0644,0.15423 -0.186192,0.1611 -0.588846,0.0332 z m 3.979678,-0.7324 -0.879428,-0.76691 -0.610804,-0.20594 c -0.515084,-0.17367 -0.6108,-0.22351 -0.6108,-0.31798 0,-0.0616 0.03215,-0.12549 0.07142,-0.14195 0.08411,-0.0352 1.129106,0.2895 1.29331,0.40189 0.06214,0.0425 0.468803,0.391 0.903696,0.7744 0.434896,0.38339 0.824721,0.69707 0.86628,0.69707 0.04156,0 0.08716,-0.0313 0.101333,-0.0697 0.01685,-0.0455 0.02716,-0.0476 0.02981,-0.006 0.002,0.0351 -0.06109,0.13987 -0.140675,0.23286 l -0.14471,0.16905 z m -8.876362,0.57429 c -0.109299,-0.0798 -0.256202,-0.20237 -0.326454,-0.27241 -0.07025,-0.07 -0.208201,-0.17071 -0.306552,-0.22371 -0.384614,-0.20726 -0.593206,-0.51708 -0.660384,-0.98083 -0.03708,-0.256 -0.02923,-0.28635 0.124999,-0.48298 0.262347,-0.33447 0.585604,-0.48285 1.102781,-0.50619 0.367156,-0.0166 0.47379,-9.5e-4 0.646593,0.0954 0.367561,0.20464 0.553672,0.5894 0.51212,1.05874 -0.03404,0.38454 -0.332586,1.15552 -0.510834,1.31919 -0.19151,0.17585 -0.333963,0.1741 -0.582269,-0.007 z m 0.695382,-1.44674 c 0,-0.33386 -0.379168,-0.65199 -0.783952,-0.65775 -0.260941,-0.004 -1.138764,0.28125 -1.076539,0.34947 0.02475,0.0271 1.602447,0.36791 1.796629,0.38806 0.03513,0.004 0.06386,-0.0323 0.06386,-0.0798 z m 3.89221,1.07607 c 0.01038,-0.0797 0.05739,-0.13183 0.128867,-0.14292 0.121549,-0.0189 0.221426,-0.24204 0.124151,-0.27743 -0.03181,-0.0116 -0.05787,-0.0812 -0.05787,-0.15474 0,-0.0961 0.03591,-0.14352 0.127729,-0.16866 0.07025,-0.0192 0.128083,-0.0511 0.128511,-0.0708 3.05e-4,-0.0197 0.01932,-0.0677 0.04203,-0.1067 0.05391,-0.0927 0.714926,0.1209 0.758608,0.24511 0.06453,0.18352 -0.07193,0.21694 -0.450843,0.11041 -0.302738,-0.0851 -0.370281,-0.0894 -0.407081,-0.026 -0.07488,0.12896 -0.05585,0.14684 0.290086,0.27247 0.339059,0.12313 0.442314,0.23122 0.333899,0.34953 -0.04485,0.0489 -0.142383,0.0407 -0.402744,-0.0341 -0.339597,-0.0976 -0.344375,-0.0974 -0.41366,0.0153 -0.09593,0.15603 -0.22255,0.14887 -0.20169,-0.0114 z m 4.495008,-0.75149 -0.882321,-0.77694 -0.610291,-0.20577 c -0.606521,-0.2045 -0.698678,-0.27689 -0.537897,-0.4225 0.05663,-0.0513 0.19298,-0.0273 0.625874,0.11028 0.304415,0.0967 0.591869,0.19823 0.638783,0.22557 0.04692,0.0274 0.468408,0.39 0.936639,0.80588 0.696826,0.61892 0.864692,0.74406 0.924935,0.6895 0.05987,-0.0542 0.06759,-0.0496 0.04141,0.0249 -0.01771,0.0503 -0.0607,0.0915 -0.09555,0.0915 -0.03485,0 -0.08494,0.0528 -0.111315,0.11727 -0.0445,0.10882 -0.11152,0.0613 -0.930276,-0.65967 z m -19.2909655,0.1041 c -0.028153,-0.0498 1.3017805,-1.22414 1.4138875,-1.24849 0.1797471,-0.039 -0.00192,0.17017 -0.6119408,0.70472 -0.665048,0.58276 -0.7480063,0.63902 -0.8019467,0.54377 z m 16.2465095,-0.0396 c -0.04416,-0.0482 -0.08029,-0.10912 -0.08029,-0.13541 0,-0.0851 0.157971,-0.22302 0.255459,-0.22302 0.09749,0 0.255463,0.13791 0.255463,0.22302 0,0.0851 -0.157972,0.22302 -0.255463,0.22302 -0.05219,0 -0.131013,-0.0394 -0.175171,-0.0876 z m 4.096254,-0.42651 c -0.04707,-0.34675 -0.300655,-0.9491 -0.525797,-1.24893 -0.327014,-0.43551 -0.773557,-0.42813 -0.988448,0.0164 -0.05675,0.11738 -0.104199,0.1936 -0.105442,0.16937 -0.0052,-0.1009 0.209885,-0.48626 0.301104,-0.53953 0.05426,-0.0317 0.169143,-0.0576 0.255289,-0.0576 0.202922,0 0.197591,-0.0607 -0.02394,-0.27301 -0.251879,-0.24135 -0.52359,-0.24191 -0.708968,-0.002 -0.07275,0.0943 -0.132624,0.22607 -0.133053,0.29272 -0.0013,0.20786 -0.06188,0.26454 -0.201057,0.18819 -0.0672,-0.0369 -0.129875,-0.0925 -0.139265,-0.12366 -0.03098,-0.10273 0.304456,-0.48555 0.516012,-0.58892 l 0.207678,-0.10147 -0.189651,-0.0865 c -0.440198,-0.20071 -0.776595,-0.0303 -0.9117,0.46177 -0.06776,0.2468 -0.184916,0.30408 -0.303371,0.14832 -0.05252,-0.0691 -0.03932,-0.12455 0.07409,-0.31157 0.0759,-0.12515 0.20515,-0.26924 0.287236,-0.32021 0.206958,-0.12849 0.187307,-0.17629 -0.07246,-0.17629 -0.366258,0 -0.567644,0.19399 -0.6756,0.6508 -0.02405,0.10172 -0.226067,0.0179 -0.226067,-0.0938 0,-0.0545 0.0674,-0.17785 0.14978,-0.27409 l 0.149777,-0.17497 -0.188098,0.0361 c -0.304754,0.0584 -0.590439,0.2167 -0.739021,0.40939 -0.233936,0.30341 -0.185793,0.43049 0.21883,0.5777 0.1633,0.0594 0.234649,0.11775 0.24627,0.20138 0.02438,0.17555 -0.09689,0.19371 -0.472463,0.0707 -0.326589,-0.10693 -0.338903,-0.10717 -0.387655,-0.008 -0.02769,0.0565 -0.05035,0.11408 -0.05035,0.12802 0,0.0139 0.149469,0.0695 0.332144,0.12347 0.385807,0.11397 0.491291,0.21043 0.372207,0.34039 -0.07101,0.0775 -0.114232,0.0751 -0.43699,-0.0246 l -0.358194,-0.11061 -0.0575,0.13772 c -0.0617,0.14779 -0.173607,0.14897 -0.199711,0.002 -0.0096,-0.0541 0.04621,-0.1248 0.140503,-0.17802 0.171551,-0.0968 0.186808,-0.14539 0.09566,-0.30468 -0.04767,-0.0833 -0.04633,-0.12525 0.0063,-0.19439 0.03688,-0.0485 0.0956,-0.0882 0.13049,-0.0882 0.03489,0 0.104122,-0.11918 0.153842,-0.26484 0.133672,-0.3916 0.29943,-0.60172 0.600024,-0.76061 0.367117,-0.19408 1.114235,-0.30118 1.472051,-0.21106 0.143287,0.0361 0.323213,0.0656 0.399831,0.0656 0.07662,0 0.325175,0.0981 0.552344,0.21797 0.368606,0.19453 0.450223,0.26801 0.758714,0.68302 0.449193,0.60429 0.777412,1.37902 0.729548,1.72199 -0.0133,0.0951 -0.03004,0.0565 -0.05484,-0.12628 z m -5.180154,0.0395 c -0.03846,-0.10939 0.06981,-0.2502 0.192397,-0.2502 0.05276,0 0.09593,-0.0384 0.09593,-0.0854 0,-0.13483 0.10504,-0.14405 0.42979,-0.0377 0.321602,0.10532 0.455046,0.23913 0.351346,0.3523 -0.04538,0.0495 -0.147288,0.0402 -0.427596,-0.0391 l -0.368013,-0.10417 -0.07563,0.12431 c -0.08814,0.14487 -0.156484,0.15865 -0.198217,0.04 z M 4.2847927,276.77558 c -0.067385,-0.2789 -0.048259,-0.55791 0.049386,-0.72053 0.1896836,-0.31593 0.841782,-0.54089 1.9487751,-0.67232 2.4016555,-0.28513 4.5827082,-0.96064 6.4120412,-1.98591 0.921248,-0.51632 0.853522,-0.45657 0.722949,-0.63772 -0.149552,-0.20748 -0.146835,-0.52604 0.0058,-0.68254 0.284596,-0.29177 0.772845,-0.37028 1.136101,-0.1827 l 0.204369,0.10554 -0.397605,0.005 c -0.671265,0.008 -0.917631,0.21431 -0.729265,0.61183 0.04516,0.0953 0.10093,0.17327 0.123941,0.17327 0.08912,0 0.976393,-0.73398 1.08091,-0.89416 0.132758,-0.20345 0.106597,-0.25065 -0.259575,-0.46813 -0.489317,-0.29063 -0.965701,-0.24832 -1.910736,0.16973 -0.255534,0.11305 -0.315151,0.1225 -0.373191,0.0591 -0.05804,-0.0633 -0.04007,-0.0995 0.112512,-0.22652 0.209114,-0.17407 0.217051,-0.21333 0.08428,-0.4168 l -0.09731,-0.14914 0.94798,-0.57131 c 0.521385,-0.31422 0.957471,-0.56094 0.969074,-0.54829 0.01159,0.0127 -0.340727,0.33154 -0.782962,0.7086 -0.442232,0.37706 -0.77929,0.69457 -0.749021,0.70559 0.03026,0.011 0.25846,-0.0188 0.507086,-0.0663 0.608805,-0.11621 1.160875,-0.11357 1.347037,0.006 0.144066,0.0929 0.209522,0.19535 0.300691,0.4708 0.09864,0.29802 0.208586,0.24936 1.128089,-0.49929 0.476773,-0.38818 0.867445,-0.72119 0.868165,-0.74002 0.002,-0.0515 -0.426146,-0.10515 -0.839569,-0.10515 -0.383553,0 -0.780406,0.10252 -1.126167,0.29093 l -0.204366,0.11135 0.228973,-0.25822 c 0.296383,-0.33426 0.443212,-0.37506 1.500416,-0.41699 l 0.860828,-0.0341 1.821501,-2.00702 c 1.592645,-1.75486 1.878244,-2.04502 2.273149,-2.3095 0.357059,-0.23914 0.507415,-0.30753 0.71792,-0.32659 l 0.26627,-0.0241 0.274309,0.32657 c 0.665896,0.79281 1.160355,2.50271 1.255314,4.34103 0.03703,0.71693 -0.03342,1.73844 -0.155721,2.25812 -0.07175,0.30484 -0.07196,0.30336 -0.03593,-0.2509 0.06017,-0.92552 0.03181,-2.12684 -0.06451,-2.73205 -0.197967,-1.24409 -0.700573,-2.65867 -1.099202,-3.0937 -0.404212,-0.4411 -0.795339,-0.42202 -1.446456,0.0706 -0.485085,0.36699 -3.630103,3.82468 -3.561218,3.91526 0.02629,0.0346 0.161367,0.1209 0.300173,0.19185 0.173101,0.0885 0.259381,0.16899 0.274678,0.25631 l 0.0223,0.12731 -0.187819,-0.13564 c -0.484875,-0.35016 -0.678454,-0.28968 -1.364952,0.42653 -0.678299,0.70766 -0.892681,0.88163 -1.863816,1.51251 l -0.856905,0.55666 0.155802,0.28853 c 0.24925,0.46157 0.317026,0.65855 0.341291,0.99194 0.02652,0.36433 -0.05541,0.59598 -0.32649,0.92314 l -0.176812,0.21338 0.1052,-0.23704 c 0.19436,-0.43795 0.272856,-0.88682 0.205914,-1.17748 -0.06077,-0.26386 -0.240831,-0.57575 -0.427703,-0.74084 -0.09946,-0.0879 -0.130893,-0.0779 -0.643469,0.20321 -0.296396,0.16257 -0.752223,0.44877 -1.012946,0.636 -0.398082,0.28589 -0.509809,0.34042 -0.697316,0.34042 -0.122809,0 -0.415302,0.075 -0.649985,0.16658 -0.294104,0.11481 -1.1729483,0.3143 -2.8280307,0.64196 -1.3207215,0.26146 -2.5177461,0.51201 -2.6600423,0.55679 -0.40767,0.12828 -0.6733215,0.37228 -0.84002,0.77157 -0.1428804,0.34223 -0.1439593,0.34327 -0.1841329,0.17698 z m 16.0554493,-1.2637 c 0.338722,-0.38159 0.44193,-0.5542 0.400474,-0.66979 -0.03877,-0.10812 -0.514783,-0.45193 -0.865145,-0.62488 -0.413828,-0.20427 -0.621503,-0.38775 -0.749998,-0.66261 -0.09949,-0.21282 -0.107578,-0.31268 -0.09998,-1.23459 0.0046,-0.55167 0.01667,-1.0122 0.02699,-1.02344 0.03958,-0.0432 0.372146,0.3707 0.464303,0.57786 0.12329,0.27714 0.159052,0.91791 0.0698,1.25072 l -0.06686,0.2493 -0.03155,-0.52969 c -0.02375,-0.39844 -0.06119,-0.59185 -0.151146,-0.78058 l -0.119587,-0.2509 -0.04774,0.19515 c -0.06253,0.2556 -0.01986,1.04421 0.06733,1.24454 0.07702,0.17697 0.716279,0.70035 1.235526,1.01158 0.371868,0.22289 0.60144,0.47285 0.60144,0.65482 0,0.29612 -0.320483,0.62094 -0.843019,0.85442 l -0.204366,0.0913 z M 6.5696971,274.99441 c 0.012576,-0.0137 0.723339,-0.43004 1.5795933,-0.92528 0.8562542,-0.49524 1.5626345,-0.90647 1.5697302,-0.91386 0.00709,-0.007 -0.033151,-0.15947 -0.089409,-0.33796 -0.05628,-0.17849 -0.1018609,-0.36452 -0.1013087,-0.41339 6.384e-4,-0.0489 0.1155191,-0.2486 0.2554661,-0.44388 0.1399469,-0.19526 0.254441,-0.37716 0.254441,-0.40422 0,-0.0271 -0.085585,-0.0492 -0.1901843,-0.0492 -0.184318,0 -0.1867853,-0.003 -0.079881,-0.0843 0.060675,-0.0464 0.1802578,-0.0996 0.2657313,-0.11825 0.133745,-0.0292 0.178716,-0.005 0.32256,0.17297 0.09193,0.11379 0.208778,0.23142 0.25966,0.2614 0.08748,0.0516 0.08818,0.0454 0.01277,-0.11376 -0.105496,-0.22263 -0.101165,-0.52326 0.0096,-0.6706 0.07518,-0.0999 0.113802,-0.1105 0.242685,-0.0664 0.08431,0.0288 0.222254,0.0738 0.306556,0.0998 0.143331,0.0443 0.154298,0.067 0.169099,0.35123 0.0087,0.16713 0.03857,0.33379 0.06635,0.37031 0.06353,0.0836 0.02285,0.1095 -0.248227,0.15846 -0.119429,0.0215 -0.21714,0.0596 -0.21714,0.0845 0,0.0249 0.05685,0.1792 0.126307,0.34283 l 0.126308,0.29751 -0.13332,0.0762 c -0.18376,0.10507 -0.371196,0.34838 -0.373143,0.48435 -0.0045,0.31371 -0.307562,0.46112 -0.55665,0.27072 -0.07911,-0.0605 -0.1757796,-0.0799 -0.2936448,-0.059 -0.096636,0.0172 -0.6734748,0.31486 -1.2818629,0.66165 -0.6083881,0.3468 -1.2890575,0.71208 -1.5126075,0.81175 -0.3690189,0.16451 -0.5500013,0.22231 -0.4895589,0.15636 z m 4.1325179,-2.05207 c -3e-4,-0.1105 -0.189387,-0.41956 -0.294108,-0.48071 -0.09651,-0.0564 -0.4560053,0.002 -0.616735,0.1002 -0.077666,0.0474 -0.073944,0.0488 0.388356,0.14516 0.07783,0.0162 0.210032,0.0906 0.293782,0.16526 0.172204,0.15356 0.228982,0.17096 0.228705,0.0701 z m 1.195109,-0.57324 c -0.0466,-0.0776 -0.07587,-0.14848 -0.06504,-0.15748 0.05461,-0.0453 0.609317,-0.37046 0.632021,-0.37046 0.01446,0 0.02633,0.10035 0.02633,0.22302 0,0.411 -0.404724,0.619 -0.593303,0.30492 z m 0.08238,-2.64867 c 0.263158,-0.24756 1.042493,-0.64372 1.481668,-0.75317 0.253843,-0.0633 0.667755,-0.10151 1.226208,-0.11329 l 0.843015,-0.0178 -0.587556,0.0803 c -1.298712,0.17756 -2.209919,0.43566 -2.861149,0.81044 l -0.281011,0.16171 z"
       id="path4496"
       inkscape:connector-curvature="0"
       sodipodi:nodetypes="scsccsccccccccscscccsssccssccccccccccccccccccccccccccsscccscsccccscscccccccccccscscccccccsccscccscssccccsccsccscsccscccccccscccccccsscccscccccccccccccccccccscccccccccccsscccccccccccccccccsccscccccccccsccscssccccccccccccccccccssccsccccccccscccccccccccccccsccccccsscsccccccccccccccccccscccsscsscsccccccsccccsscsccscsscccscccccsccccccccccsccccscccccccscccccccccccccsccccccccccccccccccccccsccccsccccscccccccsccccscccccsscccccccccscccsccccccsccccsccccsssccccccscscscccccccccsscscccccccccccccccccccscccsccccccscccccscccscccscccsccccccccccccccsccccccsccccsccscsssscccccsccccccccccccscsccccccscscccccccccscccscccccccscccccccccsccscccssscccccscccccsscscccccscccssscccccccccccccccccccscscccccccccccccccccccscscccccccccssccccsccccccsccccscccccccccccccsscccccccccc" />
  </g>
</svg>
